<svg xmlns="http://www.w3.org/2000/svg" viewBox="0 0 48 48" xml:space="preserve">
	<path d="M24.2 25.2c-3.3.1-6-2.4-6.2-5.7V19c-.1-3.3 2.4-6 5.7-6.2h.5c3.3-.1 6 2.4 6.2 5.7v.5c.1 3.3-2.4 6-5.7 6.2h-.5zM11 37.4v-2.8c0-1 .2-1.9.8-2.7.5-.7 1.2-1.3 2-1.7 1.7-.8 3.5-1.4 5.3-1.8 1.7-.4 3.4-.6 5.1-.6 1.7 0 3.4.2 5.1.6 1.8.5 3.6 1.1 5.3 1.8.8.4 1.5 1 2.1 1.7.5.8.8 1.7.8 2.7v2.7L24.2 43 11 37.4z" fill="#059353" />
	<g fill="none">
		<circle cx="24" cy="23.9" r="20" />
		<circle cx="24" cy="23.9" r="18.5" stroke="#2a2a2a" stroke-width="2" />
	</g>
</svg>
