<svg xmlns="http://www.w3.org/2000/svg" viewBox="0 0 161.224 116.238">
	<path fill="#059353" fill-rule="evenodd" d="M152.879 15.613h8.344v95.256h-63.81c-1.535 1.446-6.633 5.369-16.8 5.369s-15.267-3.923-16.8-5.369H.003V15.613h8.344l5.1-15.311 1.827-.111a191.34 191.34 0 0 1 38.937 2.276c15.781 2.61 23.434 9.612 26.4 13.177 2.969-3.565 10.622-10.567 26.4-13.177A191.341 191.341 0 0 1 145.948.191l1.827.111 5.1 15.311Zm-4.895-2.17q.527 33.3 1.06 66.6l3.024 9.721-.78-66.386-3.3-9.932Zm-2.337 68.983a257.584 257.584 0 0 0-40.12 5.839c-20.3 4.778-22.868 12.941-22.875 12.964l-.017.049h68.878l-5.866-18.852ZM82.761 94.695c3.5-3.316 10-7.487 21.87-10.281a262.127 262.127 0 0 1 40.446-5.907l-1.184-74.458a190.675 190.675 0 0 0-36.244 2.316c-17.258 2.855-23.6 11-24.887 12.954v75.376Zm-4.3 0V19.32c-1.292-1.95-7.629-10.1-24.888-12.954A190.669 190.669 0 0 0 17.329 4.05l-1.184 74.458a262.112 262.112 0 0 1 40.445 5.907c11.87 2.794 18.374 6.965 21.871 10.281ZM15.573 82.426l-5.866 18.852h68.878l-.017-.049c-.008-.023-2.578-8.186-22.875-12.964a257.587 257.587 0 0 0-40.121-5.839Zm-2.336-68.983-3.3 9.932-.78 66.386 3.024-9.721 1.06-66.6Zm-5.885 5.139H2.968v89.313h62.144l.446.528c.012.014 3.987 4.841 15.053 4.841s15.041-4.827 15.052-4.841l.446-.528h62.144V18.583h-4.384l1.354 4.064q.479 41.3.97 82.592H5.028l.97-82.592 1.354-4.064Z" />
	<path fill="#059353" d="M38.838 64.997h19.271v-1.938h-1.1a3.67 3.67 0 0 1-3.662-3.663V34.563l-15.134.576v2.357l1.44-.055a3.86 3.86 0 0 1 4.006 3.858v18.1a3.669 3.669 0 0 1-3.662 3.663h-1.156V65ZM47.71 17.277a5.814 5.814 0 1 1-5.813 5.815 5.813 5.813 0 0 1 5.813-5.815Z" />
</svg>
