<svg xmlns="http://www.w3.org/2000/svg" viewBox="0 0 118.523 127.972">
	<path d="m97.648 41.388.023.022a16.593 16.593 0 0 1 0 23.56l-.023.02a15.977 15.977 0 0 1-11.759 4.928h-33.5v-2.516L8.121 41.832l-.02-.02-.042.065v51.2l44.33 25.57V90.048h33.5a35.558 35.558 0 0 0 18.911-5.114v12.8l-52.369 30.243L.001 97.714V37.202l.084-.043-.063.063 52.41-30.286 6.43 3.723-15.779 15.777 32.4 32.4 11.4-11.483-7.509-10.85-.021-.02h6.835a16.059 16.059 0 0 1 11.46 4.905Z" fill="#059353" fill-rule="evenodd" />
	<path d="M100.652 38.406a20.163 20.163 0 0 0-14.465-6.155h-.3l-14.593.022 10.109 14.572v.02l-5.941 6.028-26.438-26.436.02-.02h-.02L75.462.02V0l6 6.028-10.152 14.55h14.847a32.623 32.623 0 0 1-.274 65.244H38.656a11.734 11.734 0 0 1-1.714 2.159 11.3 11.3 0 1 1 0-15.989 11.639 11.639 0 0 1 1.714 2.157h47.227a20.921 20.921 0 0 0 14.762-35.743Z" fill="#059353" fill-rule="evenodd" />
</svg>
