<svg xmlns="http://www.w3.org/2000/svg" viewBox="0 0 101.856 139.851">
	<path d="M46.964 139.283c-10.714-.341-21.275-1.672-31.431-5.315-4.344-1.558-8.505-3.491-11.874-6.768A9.02 9.02 0 0 1 .5 120.72a8.2 8.2 0 0 1 2.025-5.3 21.265 21.265 0 0 1 6.946-5.364 65.926 65.926 0 0 1 18.17-5.923c.839-.165 1.7-.242 2.52-.464a1.167 1.167 0 0 1 1.4.581c.969 1.284 2.01 2.514 3.11 3.874-1.558.274-2.985.5-4.4.777a44.414 44.414 0 0 0-11.415 3.447 15.674 15.674 0 0 0-3.8 2.608 2.743 2.743 0 0 0 .132 4.469 18.81 18.81 0 0 0 4.607 2.745 54.371 54.371 0 0 0 14.019 3.252 138.574 138.574 0 0 0 26.281.739c7.123-.437 14.21-1.221 20.991-3.621a20.633 20.633 0 0 0 4.877-2.486c2.494-1.741 2.467-3.946.09-5.855a22.712 22.712 0 0 0-8.774-3.934c-2.967-.769-6-1.3-9-1.939-.2-.042-.411-.076-.8-.149a33.668 33.668 0 0 0 2.568-3.191c.76-1.212 1.612-1.369 2.964-1.1 6.986 1.371 13.832 3.128 20.121 6.6a20.886 20.886 0 0 1 5.831 4.516c3.235 3.736 3.2 7.854-.135 11.535a26.809 26.809 0 0 1-9.71 6.334 78.241 78.241 0 0 1-19.123 5.1 123.784 123.784 0 0 1-18.718 1.391q-2.156-.011-4.313-.079Zm4.046-21.942c-.4-.42-.772-.813-1.154-1.212l-.006-.006a144.634 144.634 0 0 1-2.153-2.286 224.3 224.3 0 0 1-15.458-18.7A162.772 162.772 0 0 1 19.3 74.616a86.268 86.268 0 0 1-8.79-23.979 44.248 44.248 0 0 1-.536-13.571 41.843 41.843 0 0 1 3.5-12.574 40.754 40.754 0 0 1 7.183-10.769A41.74 41.74 0 0 1 40.88 1.733 40.5 40.5 0 0 1 50.8.5a41.73 41.73 0 0 1 26.061 9.223 40.772 40.772 0 0 1 14.61 24.57 42.678 42.678 0 0 1 .511 11.461 58.343 58.343 0 0 1-2.156 11.257c-2.476 8.618-6.456 17.15-12.524 26.851a190.888 190.888 0 0 1-11.969 16.956 215.573 215.573 0 0 1-13.655 15.631 4.435 4.435 0 0 0-.41.529v.005c-.075.105-.159.225-.256.355ZM40.392 16.271a27.127 27.127 0 0 0 10.467 52.141h.027q1.137 0 2.259-.092l-.121-.258c-4.766-5.814-9.533-11.625-14.233-17.414 4.7-5.359 9.459-10.7 14.2-16.077-.243-1.8-.51-3.533-.753-5.333a1657.283 1657.283 0 0 0-10.2-11.313 82.671 82.671 0 0 1 2.943-1.811q9.509 3.684 19.062 7.455c2.757 1.5 4.629 4.127 4.937 8.849-.813 7.92.336 19.4.313 28.807q.393-.363.774-.742a27.119 27.119 0 0 0-19.09-46.34h-.029a27 27 0 0 0-10.556 2.128ZM55.6 43.192l-7.061 7.719a.963.963 0 0 0 .014 1.306l4.583 4.257a.919.919 0 0 0 1.277-.049l7.105-7.74a.918.918 0 0 0-.058-1.286l-4.583-4.256a.958.958 0 0 0-.629-.235.844.844 0 0 0-.648.284Zm-5.081 9.527 1.375-1.461a.986.986 0 0 1-.1-1.374l3.066-3.289a.957.957 0 0 1 1.321-.068l.021.046 1.354-1.507L59.5 46.9l-1.375 1.461a.947.947 0 0 1 .1 1.375l-3.066 3.289a.931.931 0 0 1-1.32.067l-1.33 1.441ZM34.54 33.993c-1.944-3.358-2.376-6.488-1.146-9.3.652-.577 1.323-1.111 1.975-1.687 4.258 4.955 8.582 9.935 12.885 14.871-2.165 2.432-4.333 4.864-6.48 7.339-2.395-3.752-4.837-7.477-7.234-11.223Z" fill="#059353" />
	<path d="M51.274 139.851c-1.443 0-2.9-.023-4.326-.069-12.492-.4-22.528-2.1-31.584-5.345a45.044 45.044 0 0 1-6.372-2.771 25.346 25.346 0 0 1-5.681-4.11c-2.233-2.172-3.285-4.344-3.31-6.832a8.668 8.668 0 0 1 2.135-5.621 21.343 21.343 0 0 1 7.1-5.494c4.98-2.617 10.626-4.458 18.306-5.971.325-.064.652-.115.969-.164a14.115 14.115 0 0 0 1.517-.292 2.037 2.037 0 0 1 .531-.076 1.738 1.738 0 0 1 1.4.838c.679.9 1.391 1.77 2.146 2.691.31.379.63.77.954 1.17l.533.66-.836.147c-.5.088-.992.172-1.471.254-1.012.174-1.969.338-2.926.521a44.067 44.067 0 0 0-11.288 3.4 15.168 15.168 0 0 0-3.682 2.523 2.556 2.556 0 0 0-.93 1.919 2.485 2.485 0 0 0 1.034 1.8 18.31 18.31 0 0 0 4.483 2.671 54.306 54.306 0 0 0 13.892 3.218 131.026 131.026 0 0 0 16.668 1.036c3.086 0 6.288-.1 9.518-.3 6.725-.413 13.906-1.134 20.855-3.593a20.186 20.186 0 0 0 4.758-2.424 3.273 3.273 0 0 0 1.657-2.406 3.479 3.479 0 0 0-1.594-2.649 22.484 22.484 0 0 0-8.586-3.84c-2.054-.533-4.179-.96-6.234-1.373-.9-.181-1.829-.368-2.742-.561-.117-.024-.238-.046-.406-.077l-.384-.07-.83-.155.535-.653c.3-.361.592-.7.878-1.033a17.507 17.507 0 0 0 1.652-2.107 2.666 2.666 0 0 1 2.419-1.449 5.583 5.583 0 0 1 1.064.119 99.562 99.562 0 0 1 10.374 2.525 52.3 52.3 0 0 1 9.893 4.126 21.1 21.1 0 0 1 5.967 4.627 8.48 8.48 0 0 1-.142 12.2 27.41 27.41 0 0 1-9.884 6.458 78.02 78.02 0 0 1-19.244 5.134 124.892 124.892 0 0 1-18.786 1.398Zm-20.712-35.744a1.073 1.073 0 0 0-.271.042 15.083 15.083 0 0 1-1.623.315c-.307.048-.625.1-.93.157-7.581 1.493-13.143 3.305-18.034 5.875a20.407 20.407 0 0 0-6.789 5.234A7.711 7.711 0 0 0 1 120.715c.022 2.2.978 4.151 3.008 6.126 3.533 3.437 7.894 5.293 11.694 6.656 8.954 3.212 18.893 4.892 31.278 5.286 1.417.045 2.862.068 4.294.068a123.888 123.888 0 0 0 18.643-1.385 77.059 77.059 0 0 0 19-5.065 26.5 26.5 0 0 0 9.536-6.21 7.491 7.491 0 0 0 .128-10.872 20.147 20.147 0 0 0-5.695-4.406 51.311 51.311 0 0 0-9.706-4.046 98.6 98.6 0 0 0-10.27-2.5 4.617 4.617 0 0 0-.872-.1 1.684 1.684 0 0 0-1.572.98 18.24 18.24 0 0 1-1.744 2.231l-.312.361c.9.191 1.816.375 2.7.553 2.068.416 4.207.846 6.288 1.386a23.387 23.387 0 0 1 8.962 4.028 4.406 4.406 0 0 1 1.967 3.463 4.2 4.2 0 0 1-2.084 3.193 21.2 21.2 0 0 1-5 2.547c-7.065 2.5-14.329 3.231-21.127 3.648-3.25.2-6.473.3-9.579.3a132.028 132.028 0 0 1-16.8-1.044 55.171 55.171 0 0 1-14.147-3.286 19.324 19.324 0 0 1-4.731-2.819 3.448 3.448 0 0 1-1.4-2.538 3.517 3.517 0 0 1 1.242-2.682 16.181 16.181 0 0 1 3.927-2.693 44.957 44.957 0 0 1 11.542-3.489c.967-.185 1.928-.35 2.945-.524l.628-.108-.413-.5c-.76-.929-1.479-1.806-2.17-2.722-.274-.376-.417-.445-.598-.445Zm20.449 13.733h-.216l-.148-.157q-.532-.563-1.033-1.086l-.125-.131c-.754-.789-1.466-1.534-2.16-2.294a224.783 224.783 0 0 1-15.492-18.74 163.274 163.274 0 0 1-12.98-20.584 86.759 86.759 0 0 1-8.839-24.117 44.744 44.744 0 0 1-.542-13.724 42.343 42.343 0 0 1 3.547-12.724 41.252 41.252 0 0 1 7.271-10.9A42.24 42.24 0 0 1 40.759 1.248 41 41 0 0 1 50.8 0a42.232 42.232 0 0 1 26.375 9.334A41.271 41.271 0 0 1 91.967 34.2a43.17 43.17 0 0 1 .518 11.594A58.838 58.838 0 0 1 90.31 57.15c-2.489 8.664-6.487 17.236-12.581 26.978a191.387 191.387 0 0 1-12 17c-4.183 5.3-8.787 10.567-13.687 15.668a4 4 0 0 0-.359.466l-.025.036c-.071.1-.152.214-.244.339l-.022.03-.173.173Zm-.8-2.068.129.134.62.65a3.958 3.958 0 0 1 .364-.454c4.877-5.078 9.461-10.325 13.623-15.6A190.372 190.372 0 0 0 76.882 83.6c6.043-9.66 10.005-18.151 12.468-26.723a57.858 57.858 0 0 0 2.139-11.161 42.185 42.185 0 0 0-.5-11.329 40.272 40.272 0 0 0-14.437-24.274A41.228 41.228 0 0 0 50.8 1 40 40 0 0 0 41 2.218a41.24 41.24 0 0 0-19.979 11.845A40.253 40.253 0 0 0 13.93 24.7a41.345 41.345 0 0 0-3.463 12.424 43.746 43.746 0 0 0 .531 13.418 85.778 85.778 0 0 0 8.742 23.84 162.286 162.286 0 0 0 12.9 20.459A223.79 223.79 0 0 0 48.066 113.5c.686.749 1.393 1.489 2.142 2.273Zm.678-46.862h-.027a27.6 27.6 0 0 1-25.385-16.918 27.637 27.637 0 0 1-2.158-10.776 27.605 27.605 0 0 1 27.633-27.575h.029a27.45 27.45 0 0 1 19.49 8.126 27.6 27.6 0 0 1-.047 39.068c-.255.255-.52.509-.788.756l-.842.777v-1.146c.008-3.51-.149-7.377-.3-11.118-.255-6.25-.519-12.712-.012-17.7a11.9 11.9 0 0 0-1.479-5.368 8.094 8.094 0 0 0-3.169-3.019c-6.168-2.423-12.542-4.928-18.806-7.355-.754.442-1.517.917-2.216 1.36 3.331 3.654 6.618 7.323 9.8 10.877l.1.114.021.152c.121.9.251 1.794.376 2.662s.255 1.769.377 2.671l.031.226-.151.171c-1.928 2.187-3.89 4.4-5.787 6.544-2.674 3.019-5.436 6.137-8.135 9.214 4.4 5.419 8.931 10.943 13.313 16.289l.692.844.453.966-.717.059c-.758.069-1.532.1-2.299.1Zm.063-54.269a26.652 26.652 0 0 0-10.431 51.166 26.328 26.328 0 0 0 10.341 2.1h.027c.447 0 .9-.011 1.342-.033l-.243-.3c-4.472-5.454-9.1-11.094-13.582-16.62l-.266-.327.278-.317c2.788-3.182 5.65-6.412 8.417-9.535 1.847-2.086 3.756-4.24 5.634-6.371-.112-.822-.231-1.641-.345-2.436-.118-.821-.241-1.668-.357-2.518a1726.735 1726.735 0 0 0-10.094-11.2l-.4-.439.5-.32c.9-.571 1.939-1.23 2.961-1.822l.208-.12.224.087c6.348 2.459 12.812 5 19.064 7.456l.029.011.027.015c3.2 1.746 4.9 4.773 5.2 9.255v.084c-.505 4.92-.242 11.364.012 17.6.136 3.339.277 6.78.3 9.987a26.618 26.618 0 0 0-18.814-45.409Zm2.821 42.565a1.453 1.453 0 0 1-.959-.358l-.011-.01-4.608-4.282a1.463 1.463 0 0 1-.014-1.988l7.054-7.711a1.348 1.348 0 0 1 1.021-.452 1.452 1.452 0 0 1 .959.359l.01.009 4.587 4.26a1.412 1.412 0 0 1 .092 1.976l-.009.011-7.1 7.735a1.35 1.35 0 0 1-1.025.452Zm-.3-1.106a.461.461 0 0 0 .3.106.354.354 0 0 0 .269-.11l.01-.011 7.1-7.734a.417.417 0 0 0-.027-.59l-.935-.869-1.4 1.487a1.449 1.449 0 0 1-.2 1.692l-3.061 3.283a1.441 1.441 0 0 1-1.6.372l-1.387 1.5Zm-2.238-3.409 1.239 1.131 1.336-1.448.368.348a.4.4 0 0 0 .276.107.435.435 0 0 0 .322-.138l.012-.014 3.066-3.289a.444.444 0 0 0 .114-.335.433.433 0 0 0-.16-.31l-.422-.339 1.4-1.492-1.2-1.136-1.523 1.7-.282-.626a.46.46 0 0 0-.224-.057.447.447 0 0 0-.329.141l-3.066 3.289a.491.491 0 0 0 .077.67l.362.343Zm-2.322-.827.922.856 1.413-1.5a1.449 1.449 0 0 1 .187-1.678l3.065-3.289a1.435 1.435 0 0 1 1.06-.46 1.467 1.467 0 0 1 .571.115l1.362-1.516-.946-.878a.459.459 0 0 0-.3-.107.352.352 0 0 0-.269.11l-.01.012-7.061 7.719a.467.467 0 0 0 .007.617Zm-7.2-5.821-.36-.564c-1.207-1.887-2.446-3.8-3.644-5.651-1.18-1.823-2.4-3.707-3.59-5.567l-.012-.019c-2.055-3.549-2.449-6.831-1.171-9.755l.044-.1.083-.073c.332-.293.671-.578 1-.853s.655-.55.976-.833l.38-.336.33.385c3.69 4.294 7.784 9.019 12.883 14.868l.289.332-.5.557c-2.063 2.316-4.2 4.712-6.273 7.106Zm-6.746-12.312c1.186 1.854 2.4 3.735 3.581 5.553 1.08 1.668 2.193 3.388 3.287 5.093 1.912-2.2 3.861-4.385 5.753-6.51a2666.36 2666.36 0 0 1-12.27-14.16c-.205.176-.411.348-.612.518-.3.248-.6.5-.9.763-1.085 2.591-.696 5.531 1.161 8.744Z" fill="rgba(0,0,0,0)" />
</svg>
