<svg xmlns="http://www.w3.org/2000/svg" viewBox="0 0 170.283 131.645">
	<path fill="#059353" fill-rule="evenodd" d="M108.628 97.643a8.069 8.069 0 0 1-1.111-2.4c-.316-1.039-.547-2.066-.838-3.36-.2-.885-.429-1.908-.767-3.277a15.986 15.986 0 0 0-1.4-4.074 1.962 1.962 0 0 0-1.9-1.157 2.1 2.1 0 0 0-1.874.981 6.392 6.392 0 0 0-.072 3.605l.2 1.108c.774 4.448 2.356 13.508 4.6 17.21 1.116 1.838 2.564 3.924 3.979 5.964a80.117 80.117 0 0 1 4.706 7.284 19.211 19.211 0 0 1 1.892 8.6h20.229c.237-1.093.567-2.546.923-3.88a23.412 23.412 0 0 1 1.107-3.371 281.641 281.641 0 0 0 2.723-6.284c.87-2.07 1.7-4.1 2.143-5.266a36.634 36.634 0 0 0 1.2-5.338 72.325 72.325 0 0 0 .924-7.2c.034-.965.063-2.513.081-4.1.026-2.294.038-4.7.036-5.664v-.068a1.43 1.43 0 0 0-.434-.865 1.315 1.315 0 0 0-.389-.322c-.685.031-1.177.031-1.72.033l-.926.007a1.2 1.2 0 0 0-.739.4 1.435 1.435 0 0 0-.477.808l-.109 3.02c-.072 2.061-.152 4.359-.177 4.6a1.935 1.935 0 0 1-1.39 1.7 2.137 2.137 0 0 1-.806.1 2.162 2.162 0 0 1-.817-.221l-.014-.007a2.066 2.066 0 0 1-1.177-1.9c-.012-.518 0-4.782.009-8.506l.009-5.543a1.43 1.43 0 0 0-.434-.867 1.3 1.3 0 0 0-.39-.321c-.684.03-1.177.032-1.72.032l-.926.007a1.206 1.206 0 0 0-.738.4 1.439 1.439 0 0 0-.478.808c-.027.685-.086 3.751-.142 6.618-.051 2.776-.1 5.377-.122 5.587v.013a1.918 1.918 0 0 1-1.4 1.68 2.386 2.386 0 0 1-.807.11 2.481 2.481 0 0 1-.806-.163l-.008-.006a2.118 2.118 0 0 1-1.385-1.865v-.15c0-.037.189-13.307.187-15.06v-.071a1.433 1.433 0 0 0-.434-.865 1.382 1.382 0 0 0-.387-.32c-.691.031-1.186.031-1.732.032l-.915.006a1.211 1.211 0 0 0-.739.4 1.425 1.425 0 0 0-.477.808c-.028.685-.087 3.754-.142 6.621-.051 2.775-.1 5.375-.122 5.583a1.848 1.848 0 0 1-1.265 1.667l-.062.02a1.987 1.987 0 0 1-.771.085 1.854 1.854 0 0 1-.662-.176 1.924 1.924 0 0 1-1.141-1.841c.012-.432.206-10.795.335-18.4.069-4.21.12-7.578.109-7.945a1.267 1.267 0 0 0-.332-.671c-.1-.127-.132-.211-.147-.211a46.088 46.088 0 0 0-2.008-.026l-1.137-.01a.986.986 0 0 0-.689.32 1.4 1.4 0 0 0-.441.868l-.376 9.672c-.335 8.536-.78 19.772-.789 20.71-.009.861-.038 1.67-.1 2.325a5.29 5.29 0 0 1-.5 2 2.017 2.017 0 0 1-.684.722l-.014.007a1.856 1.856 0 0 1-2.033-.007 2.831 2.831 0 0 1-.807-.747Zm.81-9.372.99-25.4a5.038 5.038 0 0 1 1.457-3.255 4.411 4.411 0 0 1 3.173-1.35h1.137a35.457 35.457 0 0 1 2.146.034 3.82 3.82 0 0 1 2.7 1.462 4.84 4.84 0 0 1 1.145 2.822c.012.407-.038 3.832-.109 8.1l-.035 2a4.152 4.152 0 0 1 1.528-.323l.969-.013c.469.007.889.006 1.594-.026h.127a4.255 4.255 0 0 1 2.923 1.392 5.069 5.069 0 0 1 1.343 2.576 4.356 4.356 0 0 1 2.207-.671l.98-.007c.465 0 .885 0 1.583-.033h.125a4.265 4.265 0 0 1 2.927 1.393 4.961 4.961 0 0 1 1.405 3.145v2.82a4.332 4.332 0 0 1 2.136-.628l.98-.007c.465 0 .884 0 1.583-.033h.125a4.266 4.266 0 0 1 2.926 1.393 4.96 4.96 0 0 1 1.405 3.144v.178c0 .942-.009 3.406-.035 5.739a221.82 221.82 0 0 1-.08 4.192 75.547 75.547 0 0 1-.966 7.668 38.638 38.638 0 0 1-1.381 5.968c-.457 1.22-1.31 3.295-2.2 5.4-1.078 2.562-2.211 5.174-2.763 6.382a20.237 20.237 0 0 0-.9 2.808 94.926 94.926 0 0 0-1.179 5.094l-.287 1.407h-26.489l-.065-1.7-.014-.877c-.015-1.825-.045-5.147-1.508-7.91a77.631 77.631 0 0 0-4.486-6.928c-1.414-2.04-2.861-4.125-4.087-6.142-2.6-4.287-4.259-13.764-5.07-18.416l-.2-1.109a9.445 9.445 0 0 1 .374-5.733 5.321 5.321 0 0 1 4.7-2.942 5.171 5.171 0 0 1 5.233 2.844 18.606 18.606 0 0 1 1.8 5.034l.122.5Z" />
	<path fill="#059353" fill-rule="evenodd" d="M24.856 52.027a135.243 135.243 0 0 1 27.624 2.2 70.89 70.89 0 0 1 21.858 7.389v6.037a70.881 70.881 0 0 0-21.858-7.388 135.213 135.213 0 0 0-27.624-2.2v-6.037Zm0 12.432a132.532 132.532 0 0 1 22.123 1.313v6.036a132.574 132.574 0 0 0-22.123-1.312v-6.037Zm145.427-48.517h-8.386v74.025l-5.112-.853c-1.66-.276-3.445-.455-5.234-.575 0 2.819-.022 5.673-.123 8.472a69.17 69.17 0 0 1-1.072 8.628h19.928v-89.7ZM96.209 97.566c-.378.2-.754.407-1.125.618-2 1.133-5.391 3.031-6.96 4.78l-2.327 2.674h12.637a60.186 60.186 0 0 1-2.225-8.073ZM8.386 15.942H0v89.7h84.123l-2.276-2.618a30.084 30.084 0 0 0-6.647-4.836c-7.036-3.984-15.331-6.356-23.253-7.709a146.615 146.615 0 0 0-27.983-2.156 77.648 77.648 0 0 0-10.466.794l-5.111.853V15.942Zm137.041-1.558a135.208 135.208 0 0 0-27.624 2.2 70.9 70.9 0 0 0-21.858 7.388v6.036a70.9 70.9 0 0 1 21.858-7.388 135.193 135.193 0 0 1 27.624-2.2v-6.037Zm0 12.547a135.222 135.222 0 0 0-27.624 2.2 70.914 70.914 0 0 0-21.858 7.388v6.037a70.913 70.913 0 0 1 21.858-7.388 135.32 135.32 0 0 1 27.624-2.2v-6.037Zm-15.862 13.118c-3.636.349-7.572.871-11.764 1.628a70.935 70.935 0 0 0-21.858 7.388v6.037a70.9 70.9 0 0 1 21.858-7.388 143.132 143.132 0 0 1 11.764-1.627v-6.038ZM151.36 6.383v71.525a114.159 114.159 0 0 0-9.488-.219 7.217 7.217 0 0 1 .486 1.975c.654 0 1.307 0 1.961-.031a7.164 7.164 0 0 1 6.6 4.5c4.231.261 6.583.655 6.583.655V.888s-16.1-2.7-39.907 1.363-32.458 13.974-32.458 13.974S76.491 6.318 52.68 2.251 12.771.888 12.771.888v83.9s16.1-2.7 39.909 1.364 32.457 13.973 32.457 13.973 2.964-3.392 10.194-7.023c-.267-1.458-.5-2.836-.723-4.061a17.13 17.13 0 0 1-.256-2.316q-1.56.724-3.069 1.526V18.885a38.277 38.277 0 0 1 4.864-3.189c6.813-3.811 14.831-6.086 22.481-7.392a144.911 144.911 0 0 1 27.645-2.13c1.617.038 3.352.1 5.083.21Zm-132.438 0v71.525c11.38-.773 24.669.449 34.8 2.179a84.582 84.582 0 0 1 25.277 8.161V18.885a38.284 38.284 0 0 0-4.865-3.189c-6.812-3.811-14.83-6.086-22.48-7.392a144.911 144.911 0 0 0-27.645-2.13c-1.617.038-3.353.1-5.083.21Zm28.289 27.931a132.616 132.616 0 0 0-22.355-1.346V14.384a132.628 132.628 0 0 1 22.355 1.345v18.586Zm4.413-5.337.855.152a70.9 70.9 0 0 1 21.858 7.388v6.037a70.894 70.894 0 0 0-21.858-7.388l-.855-.152v-6.037Zm0-12.548.855.151a70.883 70.883 0 0 1 21.858 7.388v6.04a70.883 70.883 0 0 0-21.858-7.388l-.855-.152v-6.037Zm-26.769 23.05a135.255 135.255 0 0 1 27.624 2.2 70.916 70.916 0 0 1 21.858 7.388v6.037a70.882 70.882 0 0 0-21.858-7.388 135.216 135.216 0 0 0-27.624-2.2v-6.037Z" />
</svg>
