<svg xmlns="http://www.w3.org/2000/svg" viewBox="0 0 129.282 117.09">
	<path d="M100.184 40.26a35.288 35.288 0 0 0-9.832-17.488 39.835 39.835 0 0 0-3.728-3.31 36.635 36.635 0 0 0-43.992 0 40 40 0 0 0-3.729 3.31 35.231 35.231 0 0 0-9.81 17.488c-.024.142-.049.29-.081.44l-.019.1a39.269 39.269 0 0 0-.738 7.7v33.442a2.885 2.885 0 0 1-.738 1.954 2.949 2.949 0 0 1-1.833 1.033 5.854 5.854 0 0 1-1.515.041 7.334 7.334 0 0 1-1.138.079A23.014 23.014 0 0 1-.002 62.016v-5.521a23.117 23.117 0 0 1 18.247-22.574 48.728 48.728 0 0 1 92.788 0 23.114 23.114 0 0 1 18.251 22.574v5.523a23.011 23.011 0 0 1-23.033 23.033h-.4a42.292 42.292 0 0 1-10.648 17.128l-.021.021a45.945 45.945 0 0 1-4.366 3.848l-.02.019a40.984 40.984 0 0 1-16.033 7.659 6.4 6.4 0 0 1-1.137 1.514 6.12 6.12 0 0 1-4.487 1.853h-8.974a6.33 6.33 0 0 1-6.322-6.32v-.038a6.332 6.332 0 0 1 6.322-6.322h8.974a6.131 6.131 0 0 1 4.487 1.855 6.806 6.806 0 0 1 .518.579 34.176 34.176 0 0 0 12.484-6.182 39.406 39.406 0 0 0 3.728-3.29 35.29 35.29 0 0 0 9.832-17.487c.014-.148.035-.3.06-.461l.019-.1a39.1 39.1 0 0 0 .738-6.68V48.495a39.273 39.273 0 0 0-.738-7.7l-.019-.1a8.789 8.789 0 0 1-.064-.435Z" fill="#059353" fill-rule="evenodd" />
	<path d="m80.625 37.788-2.294 4.608a3.368 3.368 0 0 0 .459 3.589q.919 1.258 1.934 2.45c.045.055.092.108.139.159a3.209 3.209 0 0 0 3.251 1.079l4.986-1.2c.264.629.511 1.272.737 1.934a27.267 27.267 0 0 1 1.577 8.1l-5.105 1.116a3.221 3.221 0 0 0-2.454 2.393c-.02.067-.041.133-.059.2a26.748 26.748 0 0 0-.738 3.232 3.219 3.219 0 0 0 1.2 3.211l4.008 3.11a26.263 26.263 0 0 1-6.381 8.076l-4.01-3.29a3.308 3.308 0 0 0-3.448-.42 2.49 2.49 0 0 0-.159.06q-1.353.628-2.793 1.377c-.061.024-.121.053-.181.08a3.193 3.193 0 0 0-1.773 2.911l.06 5.105a25.38 25.38 0 0 1-5.466.518 24.632 24.632 0 0 1-4.786-.518l.041-5.165a3.255 3.255 0 0 0-1.835-2.911 25.219 25.219 0 0 0-2.93-1.457c-.067-.029-.133-.053-.2-.078a3.173 3.173 0 0 0-3.369.458l-3.948 3.209a25.237 25.237 0 0 1-6.343-8.055l4.009-3.131a3.24 3.24 0 0 0 1.156-3.231c0-.054-.012-.106-.019-.159q-.284-1.511-.7-3.051c-.019-.06-.038-.121-.06-.181a3.211 3.211 0 0 0-2.432-2.393l-5.006-1.057a26.187 26.187 0 0 1 2.334-9.97l4.985 1.2a3.209 3.209 0 0 0 3.232-1.1c.047-.043.093-.09.139-.138a30.713 30.713 0 0 0 1.934-2.432c.029-.047.055-.093.08-.141a3.269 3.269 0 0 0 .319-3.43l-2.313-4.627a27.387 27.387 0 0 1 7.258-3.806 28.798 28.798 0 0 1 2.114-.658l2.113 4.525a3.24 3.24 0 0 0 2.892 1.874q1.755.063 3.49 0a3.272 3.272 0 0 0 2.912-1.874l2.133-4.567a29.2 29.2 0 0 1 4.846 1.814 28.726 28.726 0 0 1 4.464 2.652Zm-4.666 21.4a11.369 11.369 0 1 0-3.33 8.056 10.95 10.95 0 0 0 3.33-8.059Z" fill="#059353" fill-rule="evenodd" />
</svg>
