<svg xmlns="http://www.w3.org/2000/svg" viewBox="0 0 170.249 108.546">
	<path d="m123.266 108.546-.017-.017L76.3 81.413V27.132l.033-.016-.017.033L123.266 0l46.983 27.116V81.43Zm29.784-71.5h.016L113.349 14.08l-12.583 7.283 39.7 22.949v16.8l12.584-7.268Zm-29.8 17.166L83.566 31.295l-.016-.016-.034.049v45.915l39.733 22.932Z" fill="#059353" fill-rule="evenodd" />
	<path d="M113.933 60.914v.034a2.988 2.988 0 0 1-1.217 2.783 2.653 2.653 0 0 1-2.9-.2l-12.933-7.436a8.03 8.03 0 0 1-2.917-3.149 8.516 8.516 0 0 1-1.2-4.183v-.017a3.127 3.127 0 0 1 1.2-2.833 2.739 2.739 0 0 1 2.917.233l12.933 7.433a8.021 8.021 0 0 1 2.9 3.134 8.525 8.525 0 0 1 1.217 4.201Z" fill="#059353" fill-rule="evenodd" />
	<path fill="#059353" data-name="Path 28" d="M49.77 27.444H27.245c-2.206 0-3.869 1.111-3.869 2.583v.762c0 1.471 1.663 2.583 3.869 2.583h22.526c2.2 0 3.867-1.111 3.867-2.583v-.762c0-1.472-1.664-2.583-3.868-2.583Z" />
	<path fill="#059353" data-name="Path 29" d="M17.556 75.098H3.868c-2.206 0-3.869 1.109-3.869 2.583v.762c0 1.471 1.663 2.58 3.869 2.58h13.688c2.2 0 3.867-1.109 3.867-2.58v-.762c0-1.475-1.663-2.583-3.867-2.583Z" />
	<path fill="#059353" data-name="Path 30" d="M21.619 51.27c-2.2 0-3.867 1.111-3.867 2.583v.762c0 1.471 1.663 2.583 3.867 2.583h8.055c2.2 0 3.867-1.111 3.867-2.583v-.762c0-1.471-1.663-2.583-3.867-2.583Z" />
	<path fill="#059353" data-name="Path 31" d="M80.841 80.985V27.444H64.634a2.566 2.566 0 0 0-.446.042h-.455c-2.206 0-3.869 1.111-3.869 2.583v.762c0 1.471 1.663 2.58 3.869 2.58h3.281c2.206 0 3.869 1.111 3.869 2.583v.762c0 1.471-1.663 2.583-3.869 2.583H14.366c-2.2 0-3.867 1.109-3.867 2.581v.764c0 1.471 1.663 2.581 3.867 2.581h42.513c2.2 0 3.869 1.109 3.869 2.581v.764c0 1.471-1.665 2.58-3.869 2.58H46.26c-2.2 0-3.867 1.109-3.867 2.583v.762c0 1.471 1.663 2.581 3.867 2.581h28.112c2.206 0 3.869 1.111 3.869 2.583v.762c0 1.471-1.663 2.583-3.869 2.583H14.715c-2.2 0-3.867 1.109-3.867 2.58v.762c0 1.473 1.663 2.583 3.867 2.583h49.564c2.206 0 3.869 1.109 3.869 2.58v.764c0 1.471-1.663 2.58-3.869 2.58H30.621c-2.206 0-3.869 1.109-3.869 2.583v.762c0 1.471 1.663 2.58 3.869 2.58h2.688Z" />
</svg>
