<svg xmlns="http://www.w3.org/2000/svg" xmlns:xlink="http://www.w3.org/1999/xlink" viewBox="0 0 619.3 133" xml:space="preserve">
	<path d="m371.7 34.8-1-1H361l-1 1v54.6l1 1h9.7l1-1V34.8zm-58.6 39.8-1-1h-9.7l-1 1V77l-1.6 1.9h-10l-1.7-1.9V47.6l.1-.1c2.2-2.3 2.3-2.3 2.5-2.3h8.3l2.5 2.4v2.1l1 1h9.7l1-1v-8.3c-.6-.6-4.7-4.8-7.6-7.6h-21.4l-7.5 7.4v41.7l7.5 7.4h21.4l7.6-6.8v-8.9zm103.3-39.9-1-1h-9.7l-1 1V69L393 34.7l-1.1-1h-12.2l-1 1v54.6l1 1h9.7l1-1v-29l10.8 28.9 1.3 1h13l1-1-.1-54.5zm-62.7.1-1-1H343l-1 1v21.6h-13.2V34.8l-1-1h-9.7l-1 1v54.6l1 1h9.7l1-1V67.8H342v21.6l1 1h9.7l1-1V34.8zm143.3 29-7.6-7.4h-15.7l-1.7-1.9v-6.9l.1-.1c2.2-2.3 2.3-2.3 2.5-2.3h10.7v4.3l1 1h9.6l1.1-1v-8.1l-7.6-7.5H468l-7.6 7.4v19.1l7.6 7.4h15.1l2.3 2.4v6.4l-.1.1c-2 2.3-2.2 2.3-2.3 2.3h-10.9v-3.9l-1-1h-9.6l-1.1 1v7.7l7.6 7.6h21.4L497 83V63.8zm-41.3 16.1-1-1h-19.5V67.8h15l1-1v-9.5l-1-1h-15V45.2h19.5l1-1v-9.5l-1-1h-30.2l-1 1v54.6l1 1h30.2l1-1v-9.4zM32 64.4l18-39.1-.8-1.9H36.7L35 24.6 25 49.4 15 24.6l-1.6-1.2H.9L0 25.3l18 39.2v24.6l1.2 1.2h11.6l1.2-1.2V64.4zm79.8 4.5L117 64l.8-2V41.4l-7.6-7.6H83.8l-1 1v54.6l1 1h9.7l1-1V45.2h9.2l2.5 2.4v8l-2.4 2.4h-9.2l12.6 31.4 1.4 1h11l.9-.9-8.7-20.6zM64 34.9l-1-1.1h-9.7l-1 1.1-16.6 54.5 1 .9H46l1.3-1L58.1 54l5.5 18.2H53.2v.1l1.1 10.3h12.4l2 6.7c.1.1.3.2.6.5.3.2.6.4.7.5h9.3l1-.9L64 34.9zm94.5 6.3-7.6-7.4h-26.4l-1 1v54.6l1 1h26.4l7.6-7.4V41.2zM146.8 77l-1.6 1.9h-10V45.2h9.2l2.5 2.4-.1 29.4zm112-42.1-1-1.1h-9.7l-1 1.1-16.5 54.5 1 .9h9.3l1.3-1L253 54l5.5 18.2H248v.1l1.1 10.3h12.4l2 6.7c.1.1.3.2.6.5.3.2.6.4.7.5h9.3l1-.9-16.3-54.5zm-30.6-10.4-.9-1.2h-13l-1.3 1.1-12 37.7h-2.4l-11.1-37.7-1.3-1.1h-13c-.2.2-.6.7-.9 1.2l-.3 64.7 1.2 1.2h11l1.2-1.2V58.9l8.6 30.4 1.7 1.2h8.3l1.6-1.2L215 59v30.1l1.3 1.2h10.8l1.2-1.2-.1-64.6z" fill="#000" />
	<path d="m608.5 13.6 3 3.1v71.8l-4.1 5.8-42 20.4-42-20.4-4.1-5.8V16.7l3.1-3.1h86.1z" fill="#e50020" />
	<path d="M611.7 5.9h-92.4l-7.6 7.6v77.4l6.6 9.5 46.2 22.5h1.8l46.3-22.4 6.6-9.5V13.5l-7.5-7.6zm-.1 82.6-4.1 5.8-42 20.4-42-20.4-4.1-5.8V16.7l3.1-3.1h86l3.1 3.1v71.8z" fill="#1a1818" />
	<defs>
		<path id="a7019" d="m523.5 94.3-4.1-5.8V16.7l3.1-3.1h86.1l3.1 3.1v71.8l-4.1 5.8-42 20.4-42.1-20.4zm-4.2-88.4-7.6 7.6v77.4l6.6 9.5 46.2 22.5h1.8l46.3-22.5 6.6-9.5V13.5l-7.6-7.6h-92.3z" />
	</defs>
	<clipPath id="b2398">
		<use xlink:href="#a7019" overflow="visible" />
	</clipPath>
	<path clip-path="url(#b2398)" fill="none" d="M565.5 0v133" />
	<path clip-path="url(#b2398)" fill="none" stroke="#fff" stroke-width="1.133" d="M565.5 0v133" />
	<path d="m608.5 13.6 3 3.1v71.8l-4.1 5.8-42 20.4-42-20.4-4.1-5.8V16.7l3.1-3.1h86.1z" fill="none" stroke="#fff" stroke-width="1.133" />
	<path d="m535.2 38.5 11.5 17.6.2.6v31.6l-.9.9h-13.3L532 88l1.8-5.6V39l1.4-.5zm60.6 0-11.5 17.6-.2.6v31.6l.9.9h13.3l.7-1.2-1.8-5.6V39l-1.4-.5z" fill="#fff" />
	<path d="m567 48.5 13.8-23.1.8-.5h16.7l.5 1.4-5 4.5-21.7 33.1v24.4l-.9.9h-11.3l-.9-.9V63.9l-21.7-33.1-5-4.5.5-1.4h16.7l.8.5L564 48.5h3z" fill="#fff" />
</svg>
