<svg xmlns="http://www.w3.org/2000/svg" viewBox="0 0 507.6 75.2" xml:space="preserve">
  <path d="M45.9 1 32.5 26.1 17.9 1H0l24.3 40.6v31.6h15.9V40.5L62.1 1H45.9z" fill="#face04"/>
  <path d="M100.5 45.6c0 4.3-1.5 17.6-16.8 17.6-6.3 0-11.9-1.9-12-10.2-.1-7.2 5.5-9.2 11.6-10.5 6.1-1.1 13.9-1.2 17.2-4.1v7.2zm17.7 27.7v-53C118.2 3.2 102 0 87.8 0c-16 0-29.3 5.5-30.4 21.9h16.5c.7-5.8 5.5-10.4 13-10.4 6.9 0 12.7 1.2 12.7 9.7 0 8-11.2 7.2-23.2 9-12.1 1.7-22 7-22 23.2 0 14.6 8.5 21.8 22 21.8 8.7 0 17.4 0 23.6-6.5.1 2.3 1.1 2.4 1.8 4.6h16.4zm285.1-27.7c0 4.3-1.5 17.6-16.8 17.6-6.3 0-11.9-1.9-12-10.2-.1-7.2 5.5-9.2 11.6-10.5 6.1-1.1 13.9-1.2 17.2-4.1v7.2zM421 73.3v-53C421 3.2 404.8 0 390.6 0c-16 0-29.3 5.5-30.4 21.9h16.5c.7-5.8 5.5-10.4 13-10.4 6.9 0 12.7 1.2 12.7 9.7 0 8-11.2 7.2-23.2 9-12.1 1.7-22 7-22 23.2 0 14.6 8.5 21.8 22 21.8 8.7 0 17.4 0 23.6-6.5.1 2.3 1.1 2.4 1.8 4.6H421zM139.7 45h13.2c8 0 10.9 3.3 12 10.9.8 5.8.6 12.7 2.5 17.3h15.9c-2.8-4-2.7-12.5-3-17.1-.5-7.3-2.7-14.9-10.5-16.9V39c8-3.2 11.4-9.6 11.4-18.1C181.2 10 173 1 160.1 1h-36.3v72.2h15.9V45zm0-31.7h14.7c7.1 0 11 3 10.9 10-.1 5.2-3.8 9-10.9 9h-14.7v-19zm62.7 46.6h14.2c9.2 0 18-5.7 18-21.6 0-14.6-5.1-23.9-20.8-23.9h-11.3v45.5zm-15.9 13.3V1h31.1c18.7 0 32.8 11.7 32.8 35.7 0 20.9-10.7 36.5-32.8 36.5h-31.1zm68.7-41.4h16.7v12.3h-16.7V31.8zM278.1 1h22.3L315 50.7h.2L329.3 1h22.4v72.2h-14.9V22h-.2l-15.8 51.2h-12.2l-15.4-50.7h-.2v50.7h-14.9V1zm149.5 0h15.8l30.1 48.4h.2V1h14.9v72.2h-15.9l-30-48.3h-.2v48.3h-14.9V1zm66.2.1h-2.9v-1h7v1H495v7.8h-1.2V1.1zm5.1-1h1.6l2.8 7.4 2.8-7.4h1.6v8.8h-1.1V1.6l-2.7 7.3h-1L500 1.6v7.3h-1.1V.1z" fill="#face04"/>
</svg>
