<svg xmlns="http://www.w3.org/2000/svg" viewBox="0 0 646.7 166.1" xml:space="preserve">
	<path d="M118.1 22.1H42.3l-25.8 89.3s75.8 1.6 83.3-.5 6.7-.1 12.3-8.9c3.8-6 5.9-13.9 7.3-19.6 2.1-8.6-.2-12.4-7.8-17.2 0 0 7.5-2.2 11.8-8.1s5.6-12.4 7.2-20.4c1.8-8.2-3.9-14.6-12.5-14.6M76.2 76.4c-.4 2.5-1 4.9-1.9 7.3-.5 1.1-1.9 3.8-5.1 3.8h-5.4L68.1 73l5.4.5c0-.1 3 .7 2.7 2.9m7-25.3s-.8 5.1-4.8 5.2c-1.7 0-3.4 0-5.1-.2L76.7 44c2-.1 4-.1 5.9.2 2.8.4 1.3 4.1.6 6.9m146.5-29-26.3 90.8 41.7-.2 26.3-90.3-41.7-.3zm108.6 18.2c-9.1-.8-40.9-2.2-51.6-.8-10.8 1.3-16.1 3.5-19.6 12.4s-11 37.1-13.7 46.5c-2.7 9.4 7 14.3 14.8 14.5s41.2.5 47.9-.1c6.7-.7 16.1-2.8 19.1-13 2.9-10.2 2.9-11.8 2.9-11.8h-35.2s-.6 1.4-2.2 4.8c-1.6 3.5-7.1 1.4-6.8-.8s2.4-10.2 2.4-10.2H340s5.6-16.9 7.8-24.5c2.1-7.6-.3-16.1-9.5-17m-28.5 21.3c-.3 2.3-.8 4.5-1.6 6.7l-7.5-.1s.6-2.8 1.7-7.4c1.2-4.6 8-3.3 7.4.8m46.5-21.3-20.4 71.2 38.4.3s9.7-34.4 11.6-40.9c1.9-6.5 9.7-5.9 7.8 1.3s-11 39.8-11 39.8l37.7-.4s13.2-45.2 16.1-56.2-5.9-14.8-17.7-14.8c-11.8 0-19.6.8-21.8 5.1-2.1 4.3.5-5.4.5-5.4h-41.2zm74 50.6c-1.4 3-2.1 6.3-2.1 9.7-.3 6.2 4 11.3 12.9 11.3H497c6.2 0 11.6-9.7 14-16.4s4.3-14.3 4.6-18c.3-3.8-2.2-9.4-10.2-9.9-8.1-.5-15.7-.8-23.2-1.1-7.5-.3-6.3-5.1-6.1-6.2.4-1 .9-1.9 1.5-2.9 1.1-2.2 6.1-1.3 6.2 1.7.1 2.6.4 2.5.4 2.5h35.9c1.3-2.3 2.1-4.8 2.4-7.4.3-3.6-2.4-9.8-6.9-11.7-4.4-1.9-4-2.3-10.5-2.3s-41.8-.1-46.9.1c-5.1.3-13.2 4.6-15.4 9.9S435.9 66 435.4 75c-.4 7.4 7.5 9.4 9.5 9.7 2 .3 19.2.3 25.1 1.3 5.9 1.1 4.9 3.1 5.1 4.3.3 1.2-.9 3.6-2.3 5.1-1.9 2.1-4.3.1-4.7-.7-.6-1.2-1-2.4-.9-3.8h-36.9M203.6 39.8c-11.6-.3-52.7-.8-52.7-.8-9.1 0-15.6 5.9-18.5 12.1-3 6.2-12.6 36.8-14.3 47.3s4.9 14 12.4 14.3 43.8 0 51.3 0 15.6-2.7 18-8.1c2.4-5.4 14.3-43.6 15.9-49.7s-.5-14.8-12.1-15.1m-30.1 28s-2.6 10-5.9 18.9c-2.5 7-8.1 3.5-6.9-1.2 1.3-5.1 2.4-12.2 5.5-19.6 2.8-6.3 8.8-2.6 7.3 1.9M10.9 124.4h513.7l-6.1 33.6H0l10.9-33.6z" fill="#025835" />
	<path d="M554.8 80.3C550.1 55.6 538.2 42.2 532 35c-5.2-6.1-22.2-20.1-12-8.4 9 11.5 19.2 36.2 20.4 56.4 1.3 22.5-4 46.3-4 46.3l-5.4 28.4h16.2l6.9-38.4c.1.1 4-22.3.7-39m42.7-50.7c5.9-17.4 21.8-26.7 29.7-28.7 7.6-1.9-14.8-1.2-25.5 4.5-8.8 4.7-13.8 10.8-18.5 19.3-5.7 10.2-8.3 23.7-9.6 29.6S565.1 96 565.1 96l-11.7 61.8h16.3L585.4 77c2.8-16.1 6.8-31.9 12.1-47.4" fill="#025835" />
	<path d="M605.7 101.4c4.9-11.7 11.5-25.8 20.3-35.4 8.4-9.1 12.6-15.1 17.2-20 4.8-5.1 6.6-7.6-8.8 1.8-16.3 10.1-20.9 13.3-30.5 25.9-7.9 10.4-11.7 19.4-16.8 34.1-2.8 8-7.8 30.9-7.8 30.9l-3.6 19H592c.3-1.5.5-2.8.7-3.6 1.8-9 8.1-41 13-52.7" fill="#025835" />
	<path d="m419.5 153.3 4.8-25h10.1l1.5 15.6 7.5-15.6h10.1l-4.8 25h-7.5l1.5-7.6.9-3.9 1.3-4.5h-.1l-7.7 16h-5.8l-1.6-16h-.1l-.4 3.7-.6 3.9-1.6 8.5h-7.5zm35.3-25h23.3l-1.3 6.6h-7.5l-3.5 18.4h-8.3l3.5-18.4h-7.5l1.3-6.6zm20.2 25 4.8-25H491c8.2 0 12.6 3.7 11 12-1.8 9.4-7.8 13-16 13h-11zm9.4-5.8h1.8c3.9 0 6.4-2 7.3-6.7 1-5.2-.4-6.6-4.9-6.6H487l-2.6 13.3zm-80.7-14h2.1l-.6 3.3c-.1.3-.2.7-.3 1.1.4-.8 1.2-1.3 2.1-1.3 1.4 0 2 .8 1.5 3.6l-.7 3.7c-.4 1.6-1.1 3.4-2.9 3.4-.8.1-1.6-.5-1.7-1.3l-.2 1.1h-2l2.7-13.6zm.2 10.3c-.2 1.2 0 1.8.7 1.8.6 0 1-.8 1.3-1.8l.7-3.4c.1-1 .4-2-.6-2s-1.3 1.5-1.4 2.3l-.7 3.1zm8.3-6.9-.1 5.4c0 .9-.1 1.8-.2 2.7.2-.9.5-1.8.8-2.6l2-5.5h2.2l-4.2 10.4c-1 2.3-1.3 3.8-4.2 3.3l.4-1.8c.3 0 1.2.2 1.3-.5.1-.4.1-.9.1-1.3l-.3-10.1h2.2z" fill="#fff" />
</svg>
