<svg xmlns="http://www.w3.org/2000/svg" xmlns:xlink="http://www.w3.org/1999/xlink" viewBox="0 0 419.9 103.2" xml:space="preserve">
	<path d="M113 83.9c-.5-.1-1.4-.1-1.7-.1-1.7 0-1.9.2-2.6 2.8h2.1c.1.2.1.7.1 1-.1.9-.6 1.7-2.1 1.7-.2 0-.4 0-.7-.1l-1.7 7.1c-1.1 4.7-3.2 6.8-6.4 6.8-1.4 0-2-.6-1.9-1.6 0-.3.1-.6.3-.9 2.9 0 3-.1 3.9-4l1.8-7.5h-1.3c-.2-.2-.2-.7-.1-1.1.1-1.1.8-1.5 2.2-1.5 1.3-4.6 2.9-5.7 6.4-5.7 1.7 0 2.5.6 2.3 1.5 0 .8-.3 1.2-.6 1.6m8.3 5.9c-.6-.1-.9-.1-1.2-.1-1.3 0-2.3.6-3.6 2.6l-1.5 5.5c-.5.2-1.4.2-2 .2-1.2 0-1.7-.5-1.6-1.5 0-.3.2-.8.4-1.6l1.6-5.8h-1.3c-.2-.3-.2-.6-.1-1 .2-1.2 1.3-1.7 3.8-1.7 1.6 0 2 .4 1.7 1.3l-.6 1.8c1.6-2.6 2.2-3.1 3.7-3.1 1.3 0 1.6.7 1.5 1.6 0 .9-.4 1.4-.8 1.8m3.2 8.3c-1.3 0-2.1-.5-1.9-1.7.1-.5.3-1.2.4-1.8l1.7-5.4h-1.3c-.2-.3-.2-.6-.1-1 .2-1.2 1.3-1.7 3.8-1.7 1.8 0 2.1.5 1.8 1.7l-1.2 4.3c-.4 1.3-.7 2.1-.7 2.5 0 .2 0 .4.4.4.2 0 .7 0 1-.1.3.2.4.6.3.9-.3 1.3-1.6 1.9-4.2 1.9m3.8-13.1c-1 0-1.9-.4-1.7-1.7.2-1.2 1.2-2.1 2.6-2.1 1.3 0 1.8.7 1.6 1.8-.1 1.1-1.1 2-2.5 2m9.1 1.6c-4.2 0-6.9 2.6-7.5 6.9-.5 3.5 1.6 4.7 4.7 4.7 3.3 0 5-1 5.2-2.2.1-.6-.1-1.1-.6-1.3-1.2.4-2.1.7-3.3.7s-2.3-.5-2.1-2.2c.5.1.8.1 1.5.1 3.6 0 5.3-1.3 5.8-3.5.3-1.9-1.1-3.2-3.7-3.2zm-1.9 4.9c-.5 0-.9 0-1.3-.1.5-1.4 1.4-2.3 2.5-2.3.9 0 1 .4 1 1-.1.8-.8 1.4-2.2 1.4zm7.9 6.6c-1.2 0-1.7-.5-1.6-1.5 0-.3.2-.8.4-1.6l1.6-5.8h-1.3c-.2-.3-.2-.6-.1-1 .2-1.2 1.3-1.7 3.7-1.7 1.6 0 2 .4 1.7 1.3l-.3 1c1.2-1.6 2.4-2.3 4.5-2.3 2.2 0 3 .9 2.8 2.7-.2 1.4-.9 3.2-1.3 4.5-.1.5-.3 1-.4 1.5 0 .2.1.3.4.3.3 0 .6 0 1-.1.3.2.4.6.3.9-.2 1.3-1.5 1.8-4.2 1.8-1.2 0-2-.5-1.8-1.7.1-.6.3-1.3.5-1.9.2-.5 1.4-4.1 1.5-4.5s0-.9-1-.9c-.8 0-1.7.4-2.4 1.3l-2 7.4c-.6.2-1.4.3-2 .3m25.5-2.6c-.3.1-.8.1-1 .1-.4 0-.4-.2-.4-.5s.1-.8.4-1.8l3.2-11.5c-.4-.4-1.1-.6-1.9-.6-1.4 0-2 .4-2.5 2.1l-1.1 3.8c-.4-.3-1.1-.5-2.3-.5-3.1 0-6 2.4-6.7 7.2-.5 3.2.8 4.3 3.4 4.3 1.5 0 2.9-.5 3.8-2 0 .1-.1.3-.1.4-.2 1.2.5 1.6 1.5 1.6 2.3 0 3.7-.6 4-1.7 0-.4 0-.7-.3-.9zm-5.5-.6c-.4.4-1 .6-1.6.6-1.1 0-1.6-.5-1.4-2.2.4-2.8 1.7-4.2 3.4-4.2.5 0 .8 0 1.1.3l-1.5 5.5zm8.9 3.2c-1.2 0-1.9-.5-1.8-1.7.1-.6.3-1.3.4-1.9l3.1-11.2c.5-1.7 1.1-2.1 2.5-2.1.8 0 1.5.2 1.9.6l-3.2 12c-.3.9-.4 1.3-.4 1.5s.1.3.4.3c.2 0 .6 0 1-.1.2.2.3.6.3.9-.2 1.1-1.5 1.7-4.2 1.7" fill="#f5d60b" />
	<path d="M184.9 98.2c-3.1 3-5.5 4.7-8 4.7-1.4 0-2.1-.9-2.1-1.9 0-.4.3-.9.3-.9 1.9 0 4-1 4.7-2.2v-9.2h-.8c-.2-.3-.2-.8-.1-1.2.2-1.3.7-1.4 3-1.4 1.4 0 1.7.4 1.7 1.6V95c.2-.2.4-.5.6-.7 1.1-1.5 2-3.5 2.5-5.5.2-.8.3-1.5.3-2.3.1-.1.2-.1.3-.2.4-.2.9-.3 1.4-.3 1.6 0 2.3.7 2.1 2.2-.5 2.6-2.2 6.4-5.9 10m16.4-9.8c1-1.2 2-1.9 4.1-1.9 2.2 0 3 .9 2.8 2.7-.2 1.4-.9 3.2-1.3 4.5-.1.5-.3 1-.4 1.5 0 .2.1.3.4.3.2 0 .6 0 1-.1.3.2.4.6.3.9-.2 1.3-1.5 1.8-4.2 1.8-1.2 0-2-.5-1.8-1.7.1-.6.3-1.3.5-1.9s1.4-4.1 1.5-4.5 0-.9-1-.9c-.8 0-1.7.4-2.4 1.3l-2 7.4c-.5.2-1.4.2-2 .2-1.2 0-1.7-.5-1.5-1.5 0-.3.2-.8.4-1.6l3.2-11.7c.5-1.7 1.1-2.1 2.5-2.1.8 0 1.5.2 1.9.6l-2 6.7zm15.9-2c-4.3 0-7.1 2.7-7.7 6.8-.5 3.5 1.4 4.9 4.5 4.9 4.4 0 7.2-2.6 7.9-6.8.4-2.9-.7-4.9-4.7-4.9zm.8 5.1c-.3 2.5-1.7 4-3.2 4-1.4 0-1.7-.8-1.5-2.4.3-2.3 1.5-4 3.2-4 1.5 0 1.8.8 1.5 2.4zm13.4-1.2c.2-.6 0-1.1-.8-1.1s-1.7.4-2.4 1.3l-2 7.4c-.6.2-1.4.2-2 .2-1.2 0-1.7-.5-1.6-1.5 0-.3.2-.8.4-1.6l1.6-5.8h-1.3c-.2-.3-.2-.6-.1-1 .2-1.2 1.3-1.7 3.7-1.7 1.6 0 2 .4 1.7 1.3l-.3 1c1.2-1.6 2.4-2.3 4.5-2.3 2 0 2.8.8 2.7 2.2 1.1-1.5 2.4-2.2 4.3-2.2 2.1 0 2.9.9 2.7 2.7-.2 1.4-.9 3.2-1.3 4.5-.2.7-.3 1.2-.4 1.5 0 .2.1.3.4.3.3 0 .6 0 1-.1.3.2.4.6.3.9-.2 1.3-1.6 1.8-4.2 1.8-1.3 0-1.9-.6-1.8-1.8.1-.6.3-1.2.4-1.8.1-.4 1.4-4.1 1.5-4.6s-.2-.8-.9-.8c-.9 0-1.7.6-2.3 1.3l-2 7.4c-.5.2-1.4.2-2 .2-1.2 0-1.7-.5-1.6-1.5 0-.3.2-.8.4-1.6l1.4-4.6zm20.1-3.7c-4.2 0-6.9 2.6-7.5 6.9-.5 3.5 1.6 4.7 4.7 4.7 3.3 0 5-1 5.2-2.2.1-.6-.1-1.1-.6-1.3-1.2.4-2.1.7-3.3.7s-2.3-.5-2.1-2.2c.5.1.8.1 1.5.1 3.6 0 5.3-1.3 5.8-3.5.3-1.9-1.1-3.2-3.7-3.2zm-1.9 4.9c-.5 0-.9 0-1.3-.1.5-1.4 1.4-2.3 2.5-2.3.8 0 1 .4 1 1-.1.8-.8 1.4-2.2 1.4zM127.9 48.3c6.6-1.2 10.1-7 10.1-13.7 0-10.3-6.9-14.9-16-14.9h-17.9v48.4h11.7V49.5h.4l11.3 18.6h14.9l-14.5-19.8zm-8.1-7.1h-3.9v-12h3.9c3.2 0 6 2.7 6 6s-2.7 6-6 6zm151.1-1.9h.1c2.6-3.7 5.9-5.2 9.9-5.2 4.5 0 8.4 1.9 10.7 6.3 2.1-4.1 6.3-6.3 10.6-6.3 7.9 0 10.7 5.5 10.7 13v21h-11.1V52.4c0-3.4.1-9-4.6-9-5.1 0-5.3 5.1-5.3 9v15.7h-11.1V52.4c0-3.7 0-9.2-4.9-9.2s-4.9 5.6-4.9 9.2v15.7h-11.1V35.2H271v4.1h-.1zm97.5 12 6.2-16.1h7l6.8 16.2 6.5-16.2h10.8l-12.6 32.9H385l-6.8-16.3-6.8 16.3h-8.1l-12.5-32.9H362zm-34.1-16.9c-9.6 0-17.4 7.8-17.4 17.4 0 9.6 7.8 17.4 17.4 17.4 9.6 0 17.4-7.8 17.4-17.4 0-9.6-7.8-17.4-17.4-17.4zm0 23.9c-3.6 0-6.5-2.9-6.5-6.5s2.9-6.5 6.5-6.5 6.5 2.9 6.5 6.5c-.1 3.6-3 6.5-6.5 6.5zm-95.6-23.9c-9.6 0-17.4 7.8-17.4 17.4 0 9.6 7.8 17.4 17.4 17.4s17.4-7.8 17.4-17.4c0-9.6-7.8-17.4-17.4-17.4zm0 23.9c-3.6 0-6.5-2.9-6.5-6.5s2.9-6.5 6.5-6.5 6.5 2.9 6.5 6.5-2.9 6.5-6.5 6.5zm-80.2-23.9c-9.6 0-17.4 7.8-17.4 17.4 0 9.6 7.8 17.4 17.4 17.4 9.6 0 17.4-7.8 17.4-17.4 0-9.6-7.8-17.4-17.4-17.4zm0 23.9c-3.6 0-6.5-2.9-6.5-6.5s2.9-6.5 6.5-6.5 6.5 2.9 6.5 6.5-2.9 6.5-6.5 6.5zm43.7-23.9c-3.8 0-7.7 1.4-10.2 4.3v-19h-11.7v48.7H192v-3.7h.1c2.1 3.3 6.1 4.7 9.9 4.7 9.8 0 15.4-9.8 15.4-17.5 0-8-5.5-17.5-15.2-17.5zm-3.1 23.9c-3.6 0-6.5-2.9-6.5-6.5s2.9-6.5 6.5-6.5 6.5 2.9 6.5 6.5-2.9 6.5-6.5 6.5z" fill="#f5d60b" />
	<defs>
		<path id="a3785" d="M408 34.7h11.9v11.9H408z" />
	</defs>
	<clipPath id="b7418">
		<use xlink:href="#a3785" overflow="visible" />
	</clipPath>
	<g clip-path="url(#b7418)">
		<defs>
			<path id="c4388" d="M408 34.7h11.9v11.9H408z" />
		</defs>
		<clipPath id="d8156">
			<use xlink:href="#c4388" overflow="visible" />
		</clipPath>
		<path d="M414 34.7c-3.3 0-5.9 2.7-5.9 5.9 0 3.3 2.7 5.9 5.9 5.9 3.3 0 5.9-2.7 5.9-5.9s-2.7-5.9-5.9-5.9" clip-path="url(#d8156)" fill="#f5d60b" />
	</g>
	<path d="M417.3 44.2h-2.2l-1.6-2.6v2.6h-1.8v-6.8h2.6c.7 0 1.2.2 1.7.5.4.3.7.9.7 1.6 0 .5-.1.9-.4 1.2-.2.3-.6.6-1.1.7l2.1 2.8zm-3.8-3.7h.6c.1 0 .3-.1.4-.1.1-.1.2-.1.3-.3.1-.1.1-.3.1-.4 0-.2 0-.3-.1-.5l-.3-.3c-.1-.1-.2-.1-.4-.1h-.6v1.7z" fill="#fff" />
	<path d="M44.2 0C19.8 0 0 19.8 0 44.2s19.8 44.2 44.2 44.2c24.4 0 44.2-19.8 44.2-44.2C88.5 19.8 68.7 0 44.2 0zm20 67.9H30.9c-1.3 0-2.1-1-2.1-2.1V22.4c0-1.5 1-2.3 2.2-2.3h15.2c9.5 0 16 4.5 16 14.7 0 5.8-2.9 11.2-8.5 13.1-.5.2-1 .9-.5 1.7L65.1 66c.6.8.2 1.9-.9 1.9z" fill="#f5d60b" />
	<path d="M49.5 35.1c0 2.9-2.4 5.3-5.3 5.3s-5.3-2.4-5.3-5.3 2.4-5.3 5.3-5.3c3 .1 5.3 2.4 5.3 5.3" fill="#f5d60b" />
</svg>
