<svg xmlns="http://www.w3.org/2000/svg" viewBox="0 0 150 64">
	<path d="M132.506 62.87c.365 0 .692-.028.692-.47 0-.358-.32-.424-.62-.424h-.588v.893zm-.516 1.62h-.43v-2.885h1.083c.673 0 1.005.252 1.005.82 0 .516-.32.741-.737.794l.809 1.27h-.482l-.752-1.25h-.496zm.522.64c1.117 0 1.998-.885 1.998-2.09 0-1.183-.88-2.076-1.998-2.076-1.13 0-2.01.893-2.01 2.077 0 1.204.88 2.09 2.01 2.09zm-2.506-2.09c0-1.435 1.149-2.493 2.506-2.493a2.477 2.477 0 0 1 2.494 2.494 2.48 2.48 0 0 1-2.494 2.506c-1.357 0-2.506-1.058-2.506-2.506zM2.816 51.547h100.19l-2.58 14H.006zm8.138 10.72h1.629l.84-3.97h2.804l.272-1.284h-2.803l.47-2.218h2.988l.272-1.285h-4.617zm6.572-1.914.414-1.955c.116-.552.235-1.115.95-1.115.674 0 .555.563.438 1.115l-.414 1.955c-.152.718-.27 1.03-.89 1.03-.654 0-.65-.312-.498-1.03zm-1.176-.81c-.442 2.038-.326 2.911 1.452 2.88 1.735.031 2.21-.842 2.63-2.88.416-2.01.679-3.3-1.322-3.3-2.03 0-2.324 1.29-2.76 3.3zm6.58-2.103.22-1.04h-1.294l-1.242 5.867h1.347l.717-3.39c.204-.865.814-1.052 1.544-.98l.34-1.6c-.2.01-.454-.012-.906.311-.232.167-.45.406-.705.832h-.02zm5.352 1.325 1.015-2.488c.168-.409.286-.806.42-1.214.053-.199.118-.398.182-.584h.023a9.477 9.477 0 0 1-.066.584c-.04.408-.09.805-.094 1.214l-.085 2.488zm-3.173 3.502h1.745l.9-2.218h1.907l-.04 2.218h1.745l-.122-8.757h-2.2zm9.706-5.08-.264 1.25c-.495 2.335-.682 4.04 1.994 4.04.602-.046 1.274-.303 1.792-1.214h.023l-.212 1.004h1.22l.997-4.705h-2.71l-.272 1.285h1.128c-.244 1.32-.757 2.31-1.687 2.31-1.117 0-.925-1.178-.772-1.902l.515-2.429c.143-.677.362-2.207 1.642-2.207 1.094.047 1.005.747.84 1.635h1.628c.063-.35.15-.712.144-1.062-.05-1.518-.94-1.88-2.333-1.893-2.605 0-3.13 1.66-3.673 3.89zm7.786.382.214-1.013h-1.261l-1.208 5.712h1.31l.7-3.3c.197-.843.79-1.024 1.502-.954l.33-1.56c-.194.011-.442-.01-.881.305-.226.162-.437.395-.686.81zm2.333 2.835.403-1.903c.113-.537.229-1.084.925-1.084.656 0 .54.547.426 1.084l-.402 1.903c-.15.7-.264 1.003-.868 1.003-.636 0-.632-.304-.484-1.003zm-1.144-.79c-.43 1.985-.318 2.835 1.413 2.805 1.688.03 2.15-.82 2.56-2.804.404-1.955.66-3.21-1.286-3.21-1.978 0-2.264 1.255-2.687 3.21zm8.288.446.106-3.504h-1.08l-1.29 3.524c-.156.405-.282.81-.39 1.225h-.02c.053-.252.15-1.093.156-1.266l.274-3.483h-1.382l-.04 5.711h1.464l.908-2.39c.166-.445.303-.9.42-1.356h.04c-.063.486-.124.962-.133 1.438l-.055 2.308h1.432l2.36-5.71h-1.322l-1.168 3.462a16.535 16.535 0 0 0-.378 1.266h-.03c.067-.415.113-.82.128-1.225zm3.077-4.192h1.31l.254-1.195h-1.31zm-1.355 6.4h1.31l1.21-5.712H55.01l-1.21 5.711zm4.664-5.124.124-.588h-1.31l-1.21 5.712h1.312l.782-3.697c.108-.607.378-1.074.867-1.052.49.02.474.384.357.94l-.806 3.81h1.31l.933-4.406c.257-1.024-.257-1.458-1.002-1.458-.303 0-.906.08-1.337.74zm5.298.273c.616 0 .464.81.347 1.266l-.362 1.711c-.14.658-.426 1.013-.85 1.013-.403 0-.452-.436-.366-.982l.403-1.904c.16-.567.213-1.104.828-1.104zm-1.695 5.49h-1.312c-.133.96.514 1.284 1.382 1.284 1.795 0 2.315-.93 2.562-2.096l1.172-5.539H64.56l-.124.588h-.02c-.072-.517-.386-.75-.984-.739-.851.02-1.43.465-1.792 2.035l-.438 2.066c-.163.91-.152 1.913.957 1.913.57-.03.98-.203 1.359-.749l.016.02-.14.66c-.094.444-.29.89-.844.89-.161 0-.298-.02-.387-.08-.08-.052-.123-.134-.096-.254zm12.37-4.867.087-4.53h-1.348l-1.75 4.53c-.35.876-.668 1.997-1.033 3.118h-.023c.033-.21.065-.42.086-.63.1-.748.19-1.495.23-2.242l.279-4.776h-1.686l-.192 8.757h1.955l1.313-3.456c.37-.923.626-1.857.94-2.79h.024c-.082.933-.221 1.867-.242 2.79l-.081 3.456h1.954l3.47-8.757h-1.686l-1.662 4.776a33.345 33.345 0 0 0-.72 2.242c-.067.21-.123.42-.19.63h-.025c.122-1.12.279-2.242.3-3.118zm3.59 2.364.402-1.903c.114-.537.23-1.084.926-1.084.654 0 .54.547.425 1.084l-.402 1.903c-.15.7-.263 1.003-.87 1.003-.634 0-.63-.304-.482-1.003zm-1.144-.79c-.431 1.985-.32 2.835 1.413 2.805 1.688.03 2.15-.82 2.56-2.804.403-1.955.66-3.21-1.287-3.21-1.977 0-2.263 1.255-2.686 3.21zm6.202-2.045.214-1.013h-1.26l-1.21 5.712h1.31l.7-3.3c.199-.843.792-1.024 1.503-.954l.33-1.56c-.194.011-.441-.01-.88.305-.227.162-.438.395-.687.81zm.839 4.698h1.312l1.607-7.595h-1.311zm5.266-3.584-.362 1.71c-.14.66-.427 1.014-.85 1.014-.403 0-.452-.436-.367-.982l.403-1.904c.16-.567.213-1.104.829-1.104s.463.81.347 1.266zm-.63 2.977-.128.607h1.31l1.608-7.595h-1.311l-.413 1.955a2.844 2.844 0 0 0-.067.506h-.02c-.147-.547-.46-.739-1.016-.728-.852.02-1.438.455-1.8 2.025l-.438 2.065c-.162.912-.144 1.924.964 1.924.52-.03.916-.182 1.29-.759zm2.025.607h1.535l.327-1.54h-1.535z" fill="#059353" />
	<path d="m3.006 49.547 5.725-30h12.005l1.78 18.708 8.92-18.708h12.006l-5.726 30h-8.93l1.75-9.167 1.017-4.666 1.539-5.417h-.085l-9.191 19.25h-6.908l-1.845-19.25h-.084l-.422 4.417-.68 4.666-1.941 10.167zm41.94-30h27.802l-1.502 7.876h-8.93l-4.223 22.124h-9.941l4.222-22.124h-8.93zm34.824 23h2.106c4.633 0 7.622-2.417 8.704-8.084 1.193-6.249-.554-7.915-5.862-7.915h-1.895zm-11.277 7 5.725-30h13.31c9.773 0 14.98 4.5 13.096 14.375-2.154 11.292-9.342 15.625-19.073 15.625z" fill="#1a1919" />
	<path d="M113.538 34.13c1.31 6.756-.272 15.841-.272 15.841l-2.84 15.576h-6.592l2.188-11.524s2.138-9.63 1.61-18.775c-.473-8.209-4.65-18.21-8.313-22.877-4.173-4.766 2.745.93 4.884 3.39 2.527 2.904 7.39 8.346 9.335 18.37zm17.379-20.569c-3.487 10.174-4.91 19.234-4.91 19.234l-6.426 32.752h-6.656l4.78-25.047s2.903-14.537 3.445-16.932c.542-2.397 1.595-7.838 3.917-11.99 1.92-3.438 3.929-5.9 7.534-7.817 4.383-2.33 13.5-2.594 10.412-1.832-3.197.79-9.674 4.566-12.096 11.632zm3.376 29.107c-2 4.74-4.598 17.716-5.288 21.418-.064.342-.16.84-.28 1.461h-6.65l1.49-7.722s2.038-9.27 3.172-12.533c2.07-5.946 3.637-9.615 6.856-13.82 3.922-5.126 5.797-6.443 12.453-10.52 6.25-3.828 5.529-2.802 3.57-.736-1.87 1.975-3.603 4.396-7.02 8.095-3.595 3.89-6.303 9.618-8.303 14.357z" fill="#059353" />
</svg>
