<svg xmlns="http://www.w3.org/2000/svg" viewBox="0 0 722 136.8" xml:space="preserve">
  <path d="M714.6 21.2c0 1.8-1.3 1.9-2.8 1.9h-2.1v-3.6h2.4c1.3 0 2.5.2 2.5 1.7m1.9.1c0-2.3-1.4-3.3-4.1-3.3H708v11.5h1.8v-5h2l3 5h2l-3.3-5.1c1.7-.1 3-1 3-3.1" fill="#d70029"/>
  <path d="M720 23.8c.1 4.5-3.4 8.2-7.9 8.4-4.5.1-8.2-3.4-8.4-7.9v-.5c-.1-4.5 3.4-8.2 7.9-8.4 4.5-.1 8.2 3.4 8.4 7.9v.5m2 0c.1-5.6-4.4-10.2-10-10.2-5.6-.1-10.2 4.4-10.2 10s4.4 10.2 10 10.2h.1c5.5.1 10.1-4.4 10.1-9.9v-.1M42.6 89.4S37 90.5 33.5 84L16.6 58.4 13.8 63s-3.7-4.3.1-10.6l14.3-28.1h-5.4s1.7-5.4 9.1-5.4h31.6L61 14.1s5.6-1 9 5.5l17.7 27.1 3.3-4.8s3.7 4.3-.2 10.6l-16.4 29H95c16.4-23.8 10.4-56.3-13.4-72.6S25.3-1.5 9 22.3-1.4 78.5 22.4 94.9c22.5 15.5 53.1 11 70.3-10.3H40l2.6 4.8zm190.2 2.4h30.6l-4.3-7.2h-30.9l4.6 7.2zm-58.2.7h31.7l1.8-7.9h-31.7l-1.8 7.9zm270.2 0h63.7c8.9 0 14.4-3.9 17.6-7.9h-79.5l-1.8 7.9zm136.9-77.6h-32.4l-15.5 66.6h32.4l15.5-66.6zm-50.4 77.6h32.4l1.8-7.9h-32.4l-1.8 7.9zm101.6-22.4h-25.8L620 14.9h-32.4l-15.5 66.6h58.2l2.6-11.4zm-63.3 22.4h58.2l1.8-7.9h-58.2l-1.8 7.9zM168.1 33.3h16.6l4.3-18.4h-68.8l-4.3 18.4H135l-11.2 48.2h33.1l11.2-48.2zm-46.8 59.2h33.1l1.8-7.9h-33.1l-1.8 7.9zm573.8-56.2 4.8-21.4h-67.1L628 36.3h17.4l-10.7 45.2h33.1l10.7-45.2h16.6zm-63 56.2h33.1l1.9-7.9H634l-1.9 7.9zm-290 0h34.6l7.1-7.9H349l-6.9 7.9zm104.5-78H410l-26.3 29.1-4.4-29.1h-26.5l7.7 57-8.7 9.9h34.8l60-66.9zm-163.4 78h39.4s8.6 1.3 15.9-7.9h-71.4c2.7 4.2 7.5 7.9 16.1 7.9M413.7 64h32.2l3.7-15.9h-22.3L413.7 64zm116.9 12.3c-.5 1.8-1.3 3.5-2.2 5.2h-81l15.5-66.6h60.7s19.5-.7 18 21c0 0-1.8 18.4-21 18.4 0 0 14.4 2.5 10 22M502 66s.7-4.8-5.7-4.8h-10.9l-2.2 9.6h12.5c.1 0 6.3.2 6.3-4.8m-11-30.1-2.2 9.6h12.5s6.3.2 6.3-4.8c0 0 .7-4.8-5.7-4.8H491zm-277.6 26-4.5 19.6h-31.7l15.5-66.6h58.5s17.3-2 17.7 14.4c0 0-.7 21.3-8.1 26.5 0 0-4 4.4-16.6 4.1l13 21.7h-31.1l-12.7-19.7zm6.7-28.6-2.8 12.1h15.2s6.6-.1 7.2-6c0 0 1.7-6.1-6.6-6.1h-13z" fill="#d70029"/>
  <path d="M342.1 78.9c-.5.9-.9 1.8-1.4 2.6h-75.2c-1.1-2.8-1.8-5.8-1.8-8.8 1.9-15 5.6-29.7 11-43.8C278.2 20.6 286 15 295 14.5h35c20.6.7 22.3 15.6 22.3 15.6 3.2 23.1-10.2 48.8-10.2 48.8M315 36.6h-6.6c-2.6.1-4.8 1.9-5.5 4.4l-6.2 25.4c-.6 1.8.4 3.7 2.1 4.2.4.1.8.2 1.2.2h6.6c2.6-.1 4.8-1.9 5.5-4.4l6.2-25.4c.6-1.8-.4-3.7-2.1-4.2-.3-.2-.7-.2-1.2-.2m115.7 97c.5.1 1.1.1 1.6.1 1.9 0 3.5-.7 3.5-2.7 0-1.8-1.7-2.6-3.7-2.6h-1.4v5.2zm0-8.1h1.4c2.2 0 3.3-.9 3.3-2.3s-1.1-2.1-2.9-2.1c-.6 0-1.2 0-1.8.1v4.3zm-4.1-7c1.8-.3 3.6-.4 5.3-.4 2.5 0 4.1.2 5.4 1 1.4.7 2.2 2.1 2.2 3.6 0 1.8-1.3 3.4-3 3.9v.1c2.1.4 3.7 2.3 3.6 4.5 0 1.5-.7 3-1.9 3.9-1.3 1.1-3.6 1.7-7.2 1.7-1.5 0-3-.1-4.5-.3l.1-18zm23.8-.3v10.5c0 3.2 1.2 4.8 3.3 4.8 2.2 0 3.4-1.5 3.4-4.8v-10.5h4.1v10.2c0 5.6-2.8 8.3-7.6 8.3-4.6 0-7.3-2.6-7.3-8.4v-10.2h4.1zm17.7 0h4.1v18.3h-4.1zm10.9 0h4.1V133h7.3v3.5H479v-18.3zm17.9 3.5H492v-3.5h14v3.5h-5v14.8h-4.1v-14.8zm23.1-3.5h11.1v3.4h-7v4.2h6.6v3.4h-6.6v7.3H520v-18.3zm25.3 15.3c2.8 0 4.4-2.6 4.4-6.2 0-3.3-1.5-6.1-4.4-6.1s-4.4 2.8-4.4 6.2c0 3.4 1.6 6.1 4.4 6.1zm-.2 3.3c-5.4 0-8.6-4.1-8.6-9.3 0-5.5 3.5-9.6 8.9-9.6 5.6 0 8.7 4.2 8.7 9.2 0 6.1-3.6 9.7-9 9.7zm18.9-10.5h1.6c2.1 0 3.3-1 3.3-2.6 0-1.7-1.1-2.5-3-2.5-.6 0-1.3 0-1.9.1v5zm-4.1-7.8c1.8-.3 3.7-.4 5.5-.4 2.7 0 4.6.4 5.9 1.5 1.2.9 1.8 2.3 1.7 3.8 0 2-1.3 3.8-3.2 4.5v.1c1.3.5 2 1.7 2.4 3.4.6 2.1 1.1 4.5 1.5 5.2h-4.2c-.5-1.4-1-2.8-1.2-4.3-.5-2.3-1.3-2.9-3-2.9H564v7.2h-4.1v-18.1zm27.9-.3h4.1V133h7.3v3.5h-11.4v-18.3zm17 0h4.1v18.3h-4.1zm10.9 0h11.1v3.4h-7v4.2h6.6v3.4h-6.6v7.3h-4.1v-18.3zm28.3 10.6h-6.7v4.3h7.5v3.4h-11.6v-18.3h11.3v3.4h-7.1v3.8h6.7l-.1 3.4zm11.1-8h1c.6 0 1.1-.1 1.1-.7s-.6-.7-1.1-.7h-.9v1.4zm-1.1-2.2h2c1.4 0 2.1.4 2.1 1.6.1.7-.5 1.4-1.2 1.4h-.2l1.4 2.4H657l-1.3-2.3h-.7v2.3h-1v-5.4zm1.9 6.5c2.1.1 3.8-1.5 3.9-3.6.1-2.1-1.5-3.8-3.6-3.9-2.1-.1-3.8 1.5-3.9 3.6v.1c-.1 2 1.5 3.7 3.5 3.8h.1m0-8.6c2.7.1 4.8 2.3 4.7 4.9-.1 2.7-2.3 4.8-4.9 4.7-2.6-.1-4.7-2.2-4.7-4.8 0-2.6 2.1-4.8 4.7-4.8h.2m-3.7 20.3c-1.4 0-2.4-1.1-2.4-2.5s1.1-2.4 2.5-2.4 2.4 1.1 2.4 2.5c-.1 1.3-1.1 2.4-2.5 2.4z" fill="#d70029"/>
</svg>
