<svg xmlns="http://www.w3.org/2000/svg" viewBox="0 0 476 115" xml:space="preserve">
  <path d="M0 0h476v115H0V0z" fill="#fff"/>
  <path d="M9.2 9.2h457.6v96.5H9.2V9.2z" fill="#cf0013"/>
  <path d="m129.1 31.5-7.3 6.3v45.9h12.6V66.3h9.4v17.4h12.6V37.8l-7.3-6.3h-20zm14.6 23.2h-9.4V42.5h9.4v12.2zM32.2 38.9v37.5l7.3 7.4h21V72.1H45.8v-29h14.7V31.5h-21l-7.3 7.4zm74.9 18.4V37.8l-9.4-6.3H73v52.3h13.6V64.3l10.5 19.5h14.5L99.7 62.1l7.4-4.8zM94 54.2h-7.3V43.1H94v11.1zm268.2-22.7-7.3 6.3v45.9h12.6V66.3h9.4v17.4h12.6V37.8l-7.3-6.3h-20zm14.7 23.2h-9.4V42.5h9.4v12.2zm50.7 29L415.5 56v27.7h-12.4V31.5h12.1l12.1 27.7V31.5h12.4v52.3l-12.1-.1m25.1-12.1c3.4 0 6.1 2.7 6.1 6.1s-2.7 6.1-6.1 6.1-6.1-2.7-6.1-6.1c0-3.4 2.7-6.1 6.1-6.1m5 6c-.1-2.8-2.3-5-5.1-4.9s-5 2.3-4.9 5.1c.1 2.7 2.3 4.9 5 4.9 2.8 0 5-2.3 5-5.1 0 .1 0 0 0 0m-7.4-3.5h2.8c1.6 0 2.4.7 2.4 2.1 0 1-.8 1.9-1.8 2h-.1l2 3.1h-1.1l-2-3h-1.2v3h-1.1l.1-7.2zm2.2 3.2c1 0 1.9-.1 1.9-1.1 0-.9-.8-1-1.5-1h-1.5v2.2h1.1zm-248-33.2h11v39.6h13.6V44.1h8.6l3.9-12.7h-33.3l-3.8 12.7zm-34.6 39.6h14.2V65.3h10.7V53.6h-10.7v-10h12V31.5h-26.2v52.2zM281 31.5h-30.9l-3.2 13.2 18.9 27.5h-18.9l-3.7 11.6H277l3.9-12.1-20.4-28h16.8l3.7-12.2zm24.1 21.6 7.9 18.5h5.8l7.9-18.5v30.6h13.6V31.5H324l-8.1 19.1-8.1-19.1h-16.2v52.3h13.6V53.1z" fill="#fff"/>
</svg>
