<svg xmlns="http://www.w3.org/2000/svg" viewBox="0 0 617.1 214.3" xml:space="preserve">
  <path d="M246.4 91.6h30.9s7.2-50.6 7.4-51.9c1.7-9.8 7.4-10.2 12.6-10.2h29.4L330.9 0H285c-13 0-26.2 5.6-28.6 22.2-2.4 16.6-10 69.4-10 69.4" fill="#f26311"/>
  <path d="M338.5 0h21.8s-6.7 46.8-7.3 50.9c-.6 4.1-2 10.1-8.4 10.1h-11l23.9 30.6h-31.2l-36.2-47.2h35.1c4.7 0 7.1-1.7 7.5-4.4s5.8-40 5.8-40M121.9 214.3h-53l8.6-61.1h53l-2 14.1H97.1l-1.3 9.4h31.4l-.8 6c-.6 3.9-4.6 7.1-9.1 7.1H93.9l-1.4 10.3h31.4l-2 14.2zm92.7 0h-20.3l5.2-37h-1l-17.3 33.5c-1.4 2.6-2.4 3.5-5 3.5H169c-2.6 0-3.5-1-4-3.5l-7.9-33.5h-1l-5.2 37H131l8.6-61.1h26.8c3.1 0 4.1.9 4.6 3.6l5.8 27.7h.9l13-27.7c1.3-2.7 2.5-3.6 5.6-3.6h26.8l-8.5 61.1zm8.5 0 8.6-61.1h13.4c4.5 0 7.7 3.2 7.2 7.1l-7.6 54h-21.6zm97.8 0H306c-4.6 0-6.7-1.1-8.6-4.4L280 179.4h-.5l-4.9 34.9h-20.3l8.6-61.1h18.3c4.6 0 6.8 1.1 8.6 4.4l14.5 26.8h.5l4.4-31.2h20.3l-8.6 61.1zm61.3-61.1c7.5 0 11.6.9 14 3.1 3.1 3 4.6 7.4 3.4 17.8H379c.6-4.9-.6-5.6-1.2-6.2-.4-.4-1.3-.7-4.3-.7h-9c-3.1 0-4 .2-4.7.7-1 .8-2.7 3.5-4.4 15.8s-.8 15.2 0 16c.5.5 1.4.7 4.5.7h9.5c2.8 0 3.9-.2 4.6-.7.8-.6 2.4-2.3 3-6.6l.1-.4h-6.9c-4.5 0-7.7-3.2-7.2-7.1l.8-5.5h35.7l-1 7.4c-2.1 14.7-5.9 19.9-10.3 23.3-3.3 2.5-8 3.6-14.5 3.6h-23.2c-7.3 0-11-1.1-13.3-3.5-3.6-3.5-6.2-10.2-3.8-27 2.4-16.8 6.8-23.6 11.4-27 3-2.4 7-3.5 14.3-3.5h23.1zm61.8 14.3-5.6 39.7c-.5 3.9-4.6 7.1-9.1 7.1h-13.4l6.6-46.8h-18.4l2-14.3h58.4l-2 14.3H444zm65.4-14.3c7.3 0 11 1.1 13.3 3.5 3.6 3.5 6.2 10.2 3.8 27-2.4 16.8-6.8 23.5-11.4 27-3 2.4-7 3.5-14.3 3.5h-21.2c-7.3 0-11-1.1-13.3-3.5-3.6-3.5-6.2-10.2-3.8-27 2.4-16.8 6.8-23.6 11.4-27 3-2.4 7-3.5 14.3-3.5h21.2zm-25 46.1c.5.5 1.5.7 4.5.7h6.7c3 0 4-.2 4.7-.7.8-.6 2.2-2.3 4.1-15.6s.9-15 .3-15.6c-.5-.5-1.5-.7-4.5-.7h-6.7c-3 0-4 .2-4.7.7-.8.6-2.2 2.3-4.1 15.6-1.9 13.5-.9 15-.3 15.6m110.4 15h-14.9c-4.6 0-6.6-1.1-8.6-4.4l-17.4-30.4h-.5l-4.9 34.9h-20.3l8.6-61.1h18.3c4.6 0 6.8 1.1 8.6 4.4l14.5 26.8h.5l4.4-31.2h20.3l-8.6 61zM63.9 155.9c-1.9-1.9-5.5-2.7-11-2.7H8.6L0 214.3h14.7c3.6 0 6.7-2.7 7.2-6.2l1.8-12.8h11.6l4 19h21L56 194c1-.4 2-.9 2.8-1.5 3.3-2.6 6.5-6.6 8.2-18.3s-.5-15.7-3.1-18.3m-36.3 11.2h14.7c3.4 0 4.3.2 4.8.7.8.8 1.1 1.9.5 6.4s-1.2 5.7-2.3 6.5c-.6.5-1.6.7-5 .7H25.6l2-14.3zm584-14c3 0 5.4 2.5 5.4 5.5s-2.5 5.4-5.5 5.4-5.4-2.5-5.4-5.4c.1-3.1 2.5-5.5 5.5-5.5m0 10c2.6.1 4.7-1.9 4.8-4.5.1-2.6-1.9-4.7-4.5-4.8-2.6-.1-4.7 1.9-4.8 4.5v.1c-.1 2.5 1.8 4.6 4.3 4.7h.2m-2.1-7.8h2.5c1.5 0 2.2.6 2.2 1.8.1.9-.6 1.7-1.5 1.7h-.1l1.8 2.8h-1.1l-1.7-2.7h-1v2.7h-1l-.1-6.3zm1 2.9h1c.9 0 1.7 0 1.7-1 0-.8-.7-1-1.4-1h-1.3v2z" fill="#f26311"/>
</svg>
