<svg xmlns="http://www.w3.org/2000/svg" viewBox="0 0 362.9 175.7" xml:space="preserve">
  <path fill="#fff" d="M2 1.4h360v166H2z"/>
  <path fill="none" stroke="#c00000" stroke-width="2" d="M1.9 2H361v164.7H1.9z"/>
  <path fill="#c00000" d="M9 7.3h346.4v96.3H9zM8.9 111h346.4v48.1H8.9z"/>
  <path fill="none" stroke="#c00000" stroke-width=".688" d="M8.9 111h346.4v48.1H8.9z"/>
  <path fill="none" d="M0 0h362.9v175.7H0z"/>
  <path d="m57.8 56.1.2.2L73 26l26.8.1 13.5 30.8 13.9-30.8h44.5v18.3h19.7V26H213v58.2h-20.9l-.1-22h-20.2v21.9h-22.9l-.1-45-22 44.9h-27l-15-27.1S71.5 84.4 71.9 84.3c.4-.2-27.1-.2-27.1-.2S19.3 26.5 19.3 25.9h27.4l11.1 30.2zm159.3-30h21.4v58.1h-21.4zm24.8 0h45.7v16.1h-12.3v42h-21.6v-42h-11.8V26.1zm48.8 0h48v16.1h-25.9V48h23.6v13.6h-23.6v6.5h25.9v16.1h-48V26.1z" fill="#fff"/>
  <path d="m62.1 173.8-.4-2.5-2-2.3c-6.6-12.6-8.9-12.6-8.9-12.6-.6-.2-.6-2.6-.6-2.6 3.2-3.1-1.2-9.3-1.2-9.3l-.7-.8-1.7.8c-.3.1-2.8 1.2-2.8 1.2l-1.9 1.1-.2.9c.5 3.8 1.7 7.4 3.5 10.8l1 .9.1.9c.1.9.5 1.8 1.2 2.5.2.2.5.3.8.4.5.1.9.4 1.3.8l1.2 3.4c-2.1.6-5.5-.1-5.5-.1l-.7-2.6.3-1.4s-.3-1.2-1.2-1.5c-.5-.2-1-.4-1.4-.8-.6-.4-.7-2.3-.7-2.3.3-1.1-3.3-9.8-3.3-9.8L37 146l-.5-1.6c-.1-.2-.1-.5 0-.8.8-1 1.2-1 1.2-1 .1-.5 3.5-3.2 3.5-3.2s1.8-1.1 1.7-1.8v-.2c-3.9-5.8-2.7-10.5-1.7-12.7.2-.3.3-.6.3-.9.1-2.3-.6-1.8-.6-1.8-2.2.1-2.4 2-2.9 3-.3.7-.6 1.3-.9 2 .3 1.3-1.4 4.8-1.4 4.8-4 4.4-6.3 3.7-6.3 3.7 6-9.7 1.3-5.1 1.3-5.1-.5-1.4 1.8-3 1.8-3-2.4-1.3-4.7 4-4.7 4-.8 1.9-2 3.5-3.5 4.7-5.6 2.6-6.4-1-6.4-1 3.9 1.8 5.5-4.1 5.5-4.1-3 4.1-9.8 1.1-9.8 1.1-5.6-4-.7-6.7 1.6-7.7-1.2 1-2.8 3.8 4.4 4.6 4.3.4 5.1-3.2 5.4-4.4l-.1.1c-1.3.9-2.8-1.6-2.8-1.6 1.2.3 2.4-.1 3.1-1 .7-1.5 5.3-6 5.3-6 8.7-7.2 11.2-1 11.2-1 .3 1.6.8 3 1.7 4.4 1.6-2.1 3.9-3.6 6.5-4.1 1.2-.2 2.4-.2 3.6-.1l2.9.1c2.7 0 7.6-.3 10.2-3.1-.4.1-.9.2-1.4.2-.4.1-.9.1-1.3.1-1.6.1-3.5-2.1-3.8-2.7-.3-.6 1.2 0 1.2 0 2.3-.1 4.6-.8 6.6-2 .5-.2 1.5-.8.4-.5-1.1.3-5.3-1.1-5.3-1.1 1.2-.2 2.3-.7 3.3-1.5 1.1-.7 2.3-1 3.6-.9 2.2-.2 2.6-1.6 2.6-1.6-.4.3-1 .2-1.5.4-.6.2-1.2.4-1.9.3-1.2.1-2.5 0-3.7-.3.6 0 1.1-.2 1.5-.6 1.1-.6 2-1.5 2.6-2.6l.2-.3c.8-.8 1.9-1.3 3-1.3-.3-.9-1.8-.5-1.8-.5-1.8.6-4 1.1-5.4-.3-.3-.4-.5-.9-.5-1.4l.5.4c1 .7 2.4.5 3.1-.5l.3-.3c.9-.9 2-1.6 3.1-2 .8-.3 1.4-1.2 2.2-1.5-.6-.3-1.4-.3-1.9-.7-.3-.1-.5-.4-.7-.6-.2-.4-.3-.8-.2-1.2.6.5 1.5.6 2.2.3 1.7-.8 2.8-2.1 4.4-3.1.6-.4 1.2-.6 1.8-.9 0 0 0-.2-.1-.2-1-.1-2 0-2.9.2.9-.6 1.3-1.6 2.3-2.2.5-.4 1.2-.6 1.8-.7 1.5-.1 3 0 4.5.2h2c-.1-.1-.2-.2-.1-.4.1-.4.3-.7.6-.9.3-.2.5-.4.8-.7.4-.4.8-.7 1.2-1.1.2-.2.4-.5.6-.7l.2-.2.1-.2c.1-.2.2-.2.4-.1l.1.1c.1.3.1.5.1.8.1.4.1.9.1 1.3v.6l.3.6-.1.2c-.2.4-.4.8-.6 1.1-.1.1-.2.2-.3.2.5-.1.9 0 1.3.3.1-.3.2-.5.3-.8.1-.2.3-.5.4-.7l.3-.3c.2-.2.3-.4.5-.5l.4-.4c.4-.2.7-.4 1-.8 0-.1.1-.2.3-.2.1.1.1.2.2.3v.6c0 .9 0 1.8.1 2.6 0 .3-.1.6-.3.9l-.3.3c-.1.1-.2.2-.4.3h-.1c.3.1.5.4.7.7.3.2.6.4 1 .5.5.2 1 .6 1.4.9.2.2.3.4.3.6.1 1.1.4 2.1.9 3 .2.3.4.6.6.8.4.6.6 1.2 1.1 1.8.3.4.6.8.9 1.3.2.2.2.5.4.8l.2.3c.2.3.3.6.4.9.1.2.2.4.4.5.5.3 1 .6 1.2 1.1.1.5 0 1.1-.2 1.6v.2c.1.3-.1.5-.3.8-.2.2-.3.4-.6.6l-1.5 1.2-.3.3c-.2.2-.5.2-.7.1-.5-.1-.8-.4-1.2-.5-.4-.1-.8 0-1.1-.2s-.5-.6-.7-.9c-.4-.3-.9-.6-1.4-.8-.2-.1-.4-.1-.7-.2-.7-.2-1.4-.5-2.1-.8-2.7.7-4-.5-4-.5V99H89v.2c.1 1.8.4 3.5.9 5.2l1.6 3.9c.5 1.2 1.6 2.6 1.6 3.1l.1 1.1.3.1.6.3c.9.4 1.8.7 2.8.9.8.1 1.4.6 2.1.7.7 0 1.3.1 2 .2 1.1.4 1.9 1.4 1.8 2.6 0 0 0 .8.1.9h.1c.4-.2.8 0 1.1.3.8 1.2 1.5 2.6.9 4l-.2.1c0 .1-.1.2-.2.3l-1.8 1.8c-.8.8-1.5 1.7-2.1 2.8-.6 1.1-1.2 2.1-1.8 3.2-.4.8-.8 1.5-1.4 2.3-.2.4-.5.7-.9.9-.4.2-.9.3-1.3.3-.2 0-.5.1-.7.3-.3.2-.6.4-.9.7-.3.4-.2.9-.3 1.4-.3.8-.8 1.3-1.6 1.6l-3.4 1c-.3-.2-.3-.6-.4-1-.2-1-.4-2-.6-3.1-.1-.7.2-1.4.7-1.9.9-.6 2-.7 2.9-.3.2.1.5.3.7.1.5-.3.9-.8 1-1.4.2-.5.1-1.1.4-1.5.9-1.1 2-1.8 3-2.9l.1-.1c.2-.5.5-.9.7-1.4l.4-1c.2-.5.5-1.1.5-1.1s-2.5.8-4.4 1.3l-2.5.6-.2.1c-5.8 8.7-19 7.3-19 7.3-7.7.3-6.7 2.1-6.7 2.1l-.7 1.7-1 .6-2 .5c1 1.7 1 3.7.3 5.4-1.8 4.3-5.1 10-5.1 10l.3 2.8c2.5 6.9 4.6 8.1 4.6 8.1 2.2 1.7 1.3 2.7 1.3 2.7.9 1.4 2.3 2.4 3.9 2.7l2 3c-1.7.8-3.6 1.2-5.5 1.1-.4.2-1 .2-1 .2m0 0-.4-2.5-2-2.3c-6.6-12.6-8.9-12.6-8.9-12.6-.6-.2-.6-2.6-.6-2.6 3.2-3.1-1.2-9.3-1.2-9.3l-.7-.8-1.7.8c-.3.1-2.8 1.2-2.8 1.2l-1.9 1.1-.2.9c.5 3.8 1.7 7.4 3.5 10.8l1 .9.1.9c.1.9.5 1.8 1.2 2.5.2.2.5.3.8.4.5.1.9.4 1.3.8l1.2 3.4c-2.1.6-5.5-.1-5.5-.1l-.7-2.6.3-1.4s-.3-1.2-1.2-1.5c-.5-.2-1-.4-1.4-.8-.6-.4-.7-2.3-.7-2.3.3-1.1-3.3-9.8-3.3-9.8L37 146l-.5-1.6c-.1-.2-.1-.5 0-.8.8-1 1.2-1 1.2-1 .1-.5 3.5-3.2 3.5-3.2s1.8-1.1 1.7-1.8v-.2c-3.9-5.8-2.7-10.5-1.7-12.7.2-.3.3-.6.3-.9.1-2.3-.6-1.8-.6-1.8-2.2.1-2.4 2-2.9 3-.3.7-.6 1.3-.9 2 .3 1.3-1.4 4.8-1.4 4.8-4 4.4-6.3 3.7-6.3 3.7 6-9.7 1.3-5.1 1.3-5.1-.5-1.4 1.8-3 1.8-3-2.4-1.3-4.7 4-4.7 4-.8 1.9-2 3.5-3.5 4.7-5.6 2.6-6.4-1-6.4-1 3.9 1.8 5.5-4.1 5.5-4.1-3 4.1-9.8 1.1-9.8 1.1-5.6-4-.7-6.7 1.6-7.7-1.2 1-2.8 3.8 4.4 4.6 4.3.4 5.1-3.2 5.4-4.4l-.1.1c-1.3.9-2.8-1.6-2.8-1.6 1.2.3 2.4-.1 3.1-1 .7-1.5 5.3-6 5.3-6 8.7-7.2 11.2-1 11.2-1 .3 1.6.8 3 1.7 4.4 1.6-2.1 3.9-3.6 6.5-4.1 1.2-.2 2.4-.2 3.6-.1l2.9.1c2.7 0 7.6-.3 10.2-3.1-.4.1-.9.2-1.4.2-.4.1-.9.1-1.3.1-1.6.1-3.5-2.1-3.8-2.7-.3-.6 1.2 0 1.2 0 2.3-.1 4.6-.8 6.6-2 .5-.2 1.5-.8.4-.5-1.1.3-5.3-1.1-5.3-1.1 1.1 0 3.3-1.5 3.3-1.5 1.1-.7 2.3-1 3.6-.9 2.2-.2 2.6-1.6 2.6-1.6-.4.3-1 .2-1.5.4-.6.2-1.2.4-1.9.3-1.2.1-2.5 0-3.7-.3.6 0 1.1-.2 1.5-.6 1.1-.6 2-1.5 2.6-2.6l.2-.3c.8-.8 1.9-1.3 3-1.3-.3-.9-1.8-.5-1.8-.5-1.8.6-4 1.1-5.4-.3-.3-.4-.5-.9-.5-1.4l.5.4c1 .7 2.4.5 3.1-.5l.3-.3c.9-.9 2-1.6 3.1-2 .8-.3 1.4-1.2 2.2-1.5-.6-.3-1.4-.3-1.9-.7-.3-.1-.5-.4-.7-.6-.2-.4-.3-.8-.2-1.2.6.5 1.5.6 2.2.3 1.7-.8 2.8-2.1 4.4-3.1.6-.4 1.2-.6 1.8-.9 0 0 0-.2-.1-.2-1-.1-2 0-2.9.2.9-.6 1.3-1.6 2.3-2.2.5-.4 1.2-.6 1.8-.7 1.5-.1 3 0 4.5.2h2c-.1-.1-.2-.2-.1-.4.1-.4.3-.7.6-.9.3-.2.5-.4.8-.7.4-.4.8-.7 1.2-1.1.2-.2.4-.5.6-.7l.2-.2.1-.2c.1-.2.2-.2.4-.1l.1.1c.1.3.1.5.1.8.1.4.1.9.1 1.3v.6l.3.6-.1.2c-.2.4-.4.8-.6 1.1-.1.1-.2.2-.3.2.5-.1.9 0 1.3.3.1-.3.2-.5.3-.8.1-.2.3-.5.4-.7l.3-.3c.2-.2.3-.4.5-.5l.4-.4c.4-.2.7-.4 1-.8 0-.1.1-.2.3-.2.1.1.1.2.2.3v.6c0 .9 0 1.8.1 2.6 0 .3-.1.6-.3.9l-.3.3c-.1.1-.2.2-.4.3h-.1c.3.1.5.4.7.7.3.2.6.4 1 .5.5.2 1 .6 1.4.9.2.2.3.4.3.6.1 1.1.4 2.1.9 3 .2.3.4.6.6.8.4.6.6 1.2 1.1 1.8.3.4.6.8.9 1.3.2.2.2.5.4.8l.2.3c.2.3.3.6.4.9.1.2.2.4.4.5.5.3 1 .6 1.2 1.1.1.5 0 1.1-.2 1.6v.2c.1.3-.1.5-.3.8-.2.2-.3.4-.6.6l-1.5 1.2-.3.3c-.2.2-.5.2-.7.1-.5-.1-.8-.4-1.2-.5-.4-.1-.8 0-1.1-.2s-.5-.6-.7-.9c-.4-.3-.9-.6-1.4-.8-.2-.1-.4-.1-.7-.2-.7-.2-1.4-.5-2.1-.8-2.7.7-4-.5-4-.5V99H89v.2c.1 1.8.4 3.5.9 5.2l1.6 3.9c.5 1.2 1.6 2.6 1.6 3.1l.1 1.1.3.1.6.3c.9.4 1.8.7 2.8.9.8.1 1.4.6 2.1.7.7 0 1.3.1 2 .2 1.1.4 1.9 1.4 1.8 2.6 0 0 0 .8.1.9h.1c.4-.2.8 0 1.1.3.8 1.2 1.5 2.6.9 4l-.2.1c0 .1-.1.2-.2.3l-1.8 1.8c-.8.8-1.5 1.7-2.1 2.8-.6 1.1-1.2 2.1-1.8 3.2-.4.8-.8 1.5-1.4 2.3-.2.4-.5.7-.9.9-.4.2-.9.3-1.3.3-.2 0-.5.1-.7.3-.3.2-.6.4-.9.7-.3.4-.2.9-.3 1.4-.3.8-.8 1.3-1.6 1.6l-3.4 1c-.3-.2-.3-.6-.4-1-.2-1-.4-2-.6-3.1-.1-.7.2-1.4.7-1.9.9-.6 2-.7 2.9-.3.2.1.5.3.7.1.5-.3.9-.8 1-1.4.2-.5.1-1.1.4-1.5.9-1.1 2-1.8 3-2.9l.1-.1c.2-.5.5-.9.7-1.4l.4-1c.2-.5.5-1.1.5-1.1s-2.5.8-4.4 1.3l-2.5.6-.2.1c-5.8 8.7-19 7.3-19 7.3-7.7.3-6.7 2.1-6.7 2.1l-.7 1.7-1 .6-2 .5c1 1.7 1 3.7.3 5.4-1.8 4.3-5.1 10-5.1 10l.3 2.8c2.5 6.9 4.6 8.1 4.6 8.1 2.2 1.7 1.3 2.7 1.3 2.7.9 1.4 2.3 2.4 3.9 2.7l2 3c-1.7.8-3.6 1.2-5.5 1.1-.4.2-1 .2-1 .2" fill="#c00000"/>
  <path d="m62.1 173.8-.4-2.5-2-2.3c-6.6-12.6-8.9-12.6-8.9-12.6-.6-.2-.6-2.6-.6-2.6 3.2-3.1-1.2-9.3-1.2-9.3l-.7-.8-1.7.8c-.3.1-2.8 1.2-2.8 1.2l-1.9 1.1-.2.9c.5 3.8 1.7 7.4 3.5 10.8l1 .9.1.9c.1.9.5 1.8 1.2 2.5.2.2.5.3.8.4.5.1.9.4 1.3.8l1.2 3.4c-2.1.6-5.5-.1-5.5-.1l-.7-2.6.3-1.4s-.3-1.2-1.2-1.5c-.5-.2-1-.4-1.4-.8-.6-.4-.7-2.3-.7-2.3.3-1.1-3.3-9.8-3.3-9.8L37 146l-.5-1.6c-.1-.2-.1-.5 0-.8.8-1 1.2-1 1.2-1 .1-.5 3.5-3.2 3.5-3.2s1.8-1.1 1.7-1.8v-.2c-3.9-5.8-2.7-10.5-1.7-12.7.2-.3.3-.6.3-.9.1-2.3-.6-1.8-.6-1.8-2.2.1-2.4 2-2.9 3-.3.7-.6 1.3-.9 2 .3 1.3-1.4 4.8-1.4 4.8-4 4.4-6.3 3.7-6.3 3.7 6-9.7 1.3-5.1 1.3-5.1-.5-1.4 1.8-3 1.8-3-2.4-1.3-4.7 4-4.7 4-.8 1.9-2 3.5-3.5 4.7-5.6 2.6-6.4-1-6.4-1 3.9 1.8 5.5-4.1 5.5-4.1-3 4.1-9.8 1.1-9.8 1.1-5.6-4-.7-6.7 1.6-7.7-1.2 1-2.8 3.8 4.4 4.6 4.3.4 5.1-3.2 5.4-4.4l-.1.1c-1.3.9-2.8-1.6-2.8-1.6 1.2.3 2.4-.1 3.1-1 .7-1.5 5.3-6 5.3-6 8.7-7.2 11.2-1 11.2-1 .3 1.6.8 3 1.7 4.4 1.6-2.1 3.9-3.6 6.5-4.1 1.2-.2 2.4-.2 3.6-.1l2.9.1c2.7 0 7.6-.3 10.2-3.1-.4.1-.9.2-1.4.2-.4.1-.9.1-1.3.1-1.6.1-3.5-2.1-3.8-2.7-.3-.6 1.2 0 1.2 0 2.3-.1 4.6-.8 6.6-2 .5-.2 1.5-.8.4-.5-1.1.3-5.3-1.1-5.3-1.1 1.2-.2 2.3-.7 3.3-1.5 1.1-.7 2.3-1 3.6-.9 2.2-.2 2.6-1.6 2.6-1.6-.4.3-1 .2-1.5.4-.6.2-1.2.4-1.9.3-1.2.1-2.5 0-3.7-.3.6 0 1.1-.2 1.5-.6 1.1-.6 2-1.5 2.6-2.6l.2-.3c.8-.8 1.9-1.3 3-1.3-.3-.9-1.8-.5-1.8-.5-1.8.6-4 1.1-5.4-.3-.3-.4-.5-.9-.5-1.4l.5.4c1 .7 2.4.5 3.1-.5l.3-.3c.9-.9 2-1.6 3.1-2 .8-.3 1.4-1.2 2.2-1.5-.6-.3-1.4-.3-1.9-.7-.3-.1-.5-.4-.7-.6-.2-.4-.3-.8-.2-1.2.6.5 1.5.6 2.2.3 1.7-.8 2.8-2.1 4.4-3.1.6-.4 1.2-.6 1.8-.9 0 0 0-.2-.1-.2-1-.1-2 0-2.9.2.9-.6 1.3-1.6 2.3-2.2.5-.4 1.2-.6 1.8-.7 1.5-.1 3 0 4.5.2h2c-.1-.1-.2-.2-.1-.4.1-.4.3-.7.6-.9.3-.2.5-.4.8-.7.4-.4.8-.7 1.2-1.1.2-.2.4-.5.6-.7l.2-.2.1-.2c.1-.2.2-.2.4-.1l.1.1c.1.3.1.5.1.8.1.4.1.9.1 1.3v.6l.3.6-.1.2c-.2.4-.4.8-.6 1.1-.1.1-.2.2-.3.2.5-.1.9 0 1.3.3.1-.3.2-.5.3-.8.1-.2.3-.5.4-.7l.3-.3c.2-.2.3-.4.5-.5l.4-.4c.4-.2.7-.4 1-.8 0-.1.1-.2.3-.2.1.1.1.2.2.3v.6c0 .9 0 1.8.1 2.6 0 .3-.1.6-.3.9h0l-.3.3c-.1.1-.2.2-.4.3h-.1c.3.1.5.4.7.7.3.2.6.4 1 .5.5.2 1 .6 1.4.9.2.2.3.4.3.6.1 1.1.4 2.1.9 3 .2.3.4.6.6.8.4.6.6 1.2 1.1 1.8.3.4.6.8.9 1.3.2.2.2.5.4.8l.2.3c.2.3.3.6.4.9.1.2.2.4.4.5.5.3 1 .6 1.2 1.1.1.5 0 1.1-.2 1.6v.2c.1.3-.1.5-.3.8-.2.2-.3.4-.6.6l-1.5 1.2-.3.3c-.2.2-.5.2-.7.1-.5-.1-.8-.4-1.2-.5-.4-.1-.8 0-1.1-.2s-.5-.6-.7-.9c-.4-.3-.9-.6-1.4-.8-.2-.1-.4-.1-.7-.2-.7-.2-1.4-.5-2.1-.8-2.7.7-4-.5-4-.5V99H89h0v.2c.1 1.8.4 3.5.9 5.2l1.6 3.9c.5 1.2 1.6 2.6 1.6 3.1l.1 1.1.3.1.6.3c.9.4 1.8.7 2.8.9.8.1 1.4.6 2.1.7.7 0 1.3.1 2 .2 1.1.4 1.9 1.4 1.8 2.6 0 0 0 .8.1.9h.1c.4-.2.8 0 1.1.3.8 1.2 1.5 2.6.9 4l-.2.1c0 .1-.1.2-.2.3l-1.8 1.8c-.8.8-1.5 1.7-2.1 2.8-.6 1.1-1.2 2.1-1.8 3.2-.4.8-.8 1.5-1.4 2.3-.2.4-.5.7-.9.9-.4.2-.9.3-1.3.3-.2 0-.5.1-.7.3-.3.2-.6.4-.9.7-.3.4-.2.9-.3 1.4-.3.8-.8 1.3-1.6 1.6l-3.4 1c-.3-.2-.3-.6-.4-1-.2-1-.4-2-.6-3.1-.1-.7.2-1.4.7-1.9.9-.6 2-.7 2.9-.3.2.1.5.3.7.1.5-.3.9-.8 1-1.4.2-.5.1-1.1.4-1.5.9-1.1 2-1.8 3-2.9l.1-.1c.2-.5.5-.9.7-1.4l.4-1c.2-.5.5-1.1.5-1.1s-2.5.8-4.4 1.3l-2.5.6-.2.1c-5.8 8.7-19 7.3-19 7.3-7.7.3-6.7 2.1-6.7 2.1l-.7 1.7-1 .6-2 .5c1 1.7 1 3.7.3 5.4-1.8 4.3-5.1 10-5.1 10l.3 2.8c2.5 6.9 4.6 8.1 4.6 8.1 2.2 1.7 1.3 2.7 1.3 2.7.9 1.4 2.3 2.4 3.9 2.7l2 3c-1.7.8-3.6 1.2-5.5 1.1-.4.2-1 .2-1 .2m0 0-.4-2.5-2-2.3c-6.6-12.6-8.9-12.6-8.9-12.6-.6-.2-.6-2.6-.6-2.6 3.2-3.1-1.2-9.3-1.2-9.3l-.7-.8-1.7.8c-.3.1-2.8 1.2-2.8 1.2l-1.9 1.1-.2.9c.5 3.8 1.7 7.4 3.5 10.8l1 .9.1.9c.1.9.5 1.8 1.2 2.5.2.2.5.3.8.4.5.1.9.4 1.3.8l1.2 3.4c-2.1.6-5.5-.1-5.5-.1l-.7-2.6.3-1.4s-.3-1.2-1.2-1.5c-.5-.2-1-.4-1.4-.8-.6-.4-.7-2.3-.7-2.3.3-1.1-3.3-9.8-3.3-9.8L37 146l-.5-1.6c-.1-.2-.1-.5 0-.8.8-1 1.2-1 1.2-1 .1-.5 3.5-3.2 3.5-3.2s1.8-1.1 1.7-1.8v-.2c-3.9-5.8-2.7-10.5-1.7-12.7.2-.3.3-.6.3-.9.1-2.3-.6-1.8-.6-1.8-2.2.1-2.4 2-2.9 3-.3.7-.6 1.3-.9 2 .3 1.3-1.4 4.8-1.4 4.8-4 4.4-6.3 3.7-6.3 3.7 6-9.7 1.3-5.1 1.3-5.1-.5-1.4 1.8-3 1.8-3-2.4-1.3-4.7 4-4.7 4-.8 1.9-2 3.5-3.5 4.7-5.6 2.6-6.4-1-6.4-1 3.9 1.8 5.5-4.1 5.5-4.1-3 4.1-9.8 1.1-9.8 1.1-5.6-4-.7-6.7 1.6-7.7-1.2 1-2.8 3.8 4.4 4.6 4.3.4 5.1-3.2 5.4-4.4l-.1.1c-1.3.9-2.8-1.6-2.8-1.6 1.2.3 2.4-.1 3.1-1 .7-1.5 5.3-6 5.3-6 8.7-7.2 11.2-1 11.2-1 .3 1.6.8 3 1.7 4.4 1.6-2.1 3.9-3.6 6.5-4.1 1.2-.2 2.4-.2 3.6-.1l2.9.1c2.7 0 7.6-.3 10.2-3.1-.4.1-.9.2-1.4.2-.4.1-.9.1-1.3.1-1.6.1-3.5-2.1-3.8-2.7-.3-.6 1.2 0 1.2 0 2.3-.1 4.6-.8 6.6-2 .5-.2 1.5-.8.4-.5-1.1.3-5.3-1.1-5.3-1.1 1.1 0 3.3-1.5 3.3-1.5 1.1-.7 2.3-1 3.6-.9 2.2-.2 2.6-1.6 2.6-1.6-.4.3-1 .2-1.5.4-.6.2-1.2.4-1.9.3-1.2.1-2.5 0-3.7-.3.6 0 1.1-.2 1.5-.6 1.1-.6 2-1.5 2.6-2.6l.2-.3c.8-.8 1.9-1.3 3-1.3-.3-.9-1.8-.5-1.8-.5-1.8.6-4 1.1-5.4-.3-.3-.4-.5-.9-.5-1.4l.5.4c1 .7 2.4.5 3.1-.5l.3-.3c.9-.9 2-1.6 3.1-2 .8-.3 1.4-1.2 2.2-1.5-.6-.3-1.4-.3-1.9-.7-.3-.1-.5-.4-.7-.6-.2-.4-.3-.8-.2-1.2.6.5 1.5.6 2.2.3 1.7-.8 2.8-2.1 4.4-3.1.6-.4 1.2-.6 1.8-.9 0 0 0-.2-.1-.2-1-.1-2 0-2.9.2.9-.6 1.3-1.6 2.3-2.2.5-.4 1.2-.6 1.8-.7 1.5-.1 3 0 4.5.2h2c-.1-.1-.2-.2-.1-.4.1-.4.3-.7.6-.9.3-.2.5-.4.8-.7.4-.4.8-.7 1.2-1.1.2-.2.4-.5.6-.7l.2-.2.1-.2c.1-.2.2-.2.4-.1l.1.1c.1.3.1.5.1.8.1.4.1.9.1 1.3v.6l.3.6-.1.2c-.2.4-.4.8-.6 1.1-.1.1-.2.2-.3.2.5-.1.9 0 1.3.3.1-.3.2-.5.3-.8.1-.2.3-.5.4-.7l.3-.3c.2-.2.3-.4.5-.5l.4-.4c.4-.2.7-.4 1-.8 0-.1.1-.2.3-.2.1.1.1.2.2.3v.6c0 .9 0 1.8.1 2.6 0 .3-.1.6-.3.9h0l-.3.3c-.1.1-.2.2-.4.3h-.1c.3.1.5.4.7.7.3.2.6.4 1 .5.5.2 1 .6 1.4.9.2.2.3.4.3.6.1 1.1.4 2.1.9 3 .2.3.4.6.6.8.4.6.6 1.2 1.1 1.8.3.4.6.8.9 1.3.2.2.2.5.4.8l.2.3c.2.3.3.6.4.9.1.2.2.4.4.5.5.3 1 .6 1.2 1.1.1.5 0 1.1-.2 1.6v.2c.1.3-.1.5-.3.8-.2.2-.3.4-.6.6l-1.5 1.2-.3.3c-.2.2-.5.2-.7.1-.5-.1-.8-.4-1.2-.5-.4-.1-.8 0-1.1-.2s-.5-.6-.7-.9c-.4-.3-.9-.6-1.4-.8-.2-.1-.4-.1-.7-.2-.7-.2-1.4-.5-2.1-.8-2.7.7-4-.5-4-.5V99H89h0v.2c.1 1.8.4 3.5.9 5.2l1.6 3.9c.5 1.2 1.6 2.6 1.6 3.1l.1 1.1.3.1.6.3c.9.4 1.8.7 2.8.9.8.1 1.4.6 2.1.7.7 0 1.3.1 2 .2 1.1.4 1.9 1.4 1.8 2.6 0 0 0 .8.1.9h.1c.4-.2.8 0 1.1.3.8 1.2 1.5 2.6.9 4l-.2.1c0 .1-.1.2-.2.3l-1.8 1.8c-.8.8-1.5 1.7-2.1 2.8-.6 1.1-1.2 2.1-1.8 3.2-.4.8-.8 1.5-1.4 2.3-.2.4-.5.7-.9.9-.4.2-.9.3-1.3.3-.2 0-.5.1-.7.3-.3.2-.6.4-.9.7-.3.4-.2.9-.3 1.4-.3.8-.8 1.3-1.6 1.6l-3.4 1c-.3-.2-.3-.6-.4-1-.2-1-.4-2-.6-3.1-.1-.7.2-1.4.7-1.9.9-.6 2-.7 2.9-.3.2.1.5.3.7.1.5-.3.9-.8 1-1.4.2-.5.1-1.1.4-1.5.9-1.1 2-1.8 3-2.9l.1-.1c.2-.5.5-.9.7-1.4l.4-1c.2-.5.5-1.1.5-1.1s-2.5.8-4.4 1.3l-2.5.6-.2.1c-5.8 8.7-19 7.3-19 7.3-7.7.3-6.7 2.1-6.7 2.1l-.7 1.7-1 .6-2 .5c1 1.7 1 3.7.3 5.4-1.8 4.3-5.1 10-5.1 10l.3 2.8c2.5 6.9 4.6 8.1 4.6 8.1 2.2 1.7 1.3 2.7 1.3 2.7.9 1.4 2.3 2.4 3.9 2.7l2 3c-1.7.8-3.6 1.2-5.5 1.1-.4.2-1 .2-1 .2" fill="none" stroke="#c00000" stroke-width="2" stroke-linecap="round" stroke-linejoin="round"/>
  <path d="m62.1 173.8-.4-2.5-2-2.3c-6.6-12.6-8.9-12.6-8.9-12.6-.6-.2-.6-2.6-.6-2.6 3.2-3.1-1.2-9.3-1.2-9.3l-.7-.8-1.7.8c-.3.1-2.8 1.2-2.8 1.2l-1.9 1.1-.2.9c.5 3.8 1.7 7.4 3.5 10.8l1 .9.1.9c.1.9.5 1.8 1.2 2.5.2.2.5.3.8.4.5.1.9.4 1.3.8l1.2 3.4c-2.1.6-5.5-.1-5.5-.1l-.7-2.6.3-1.4s-.3-1.2-1.2-1.5c-.5-.2-1-.4-1.4-.8-.6-.4-.7-2.3-.7-2.3.3-1.1-3.3-9.8-3.3-9.8L37 146l-.5-1.6c-.1-.2-.1-.5 0-.8.8-1 1.2-1 1.2-1 .1-.5 3.5-3.2 3.5-3.2s1.8-1.1 1.7-1.8v-.2c-3.9-5.8-2.7-10.5-1.7-12.7.2-.3.3-.6.3-.9.1-2.3-.6-1.8-.6-1.8-2.2.1-2.4 2-2.9 3-.3.7-.6 1.3-.9 2 .3 1.3-1.4 4.8-1.4 4.8-4 4.4-6.3 3.7-6.3 3.7 6-9.7 1.3-5.1 1.3-5.1-.5-1.4 1.8-3 1.8-3-2.4-1.3-4.7 4-4.7 4-.8 1.9-2 3.5-3.5 4.7-5.6 2.6-6.4-1-6.4-1 3.9 1.8 5.5-4.1 5.5-4.1-3 4.1-9.8 1.1-9.8 1.1-5.6-4-.7-6.7 1.6-7.7-1.2 1-2.8 3.8 4.4 4.6 4.3.4 5.1-3.2 5.4-4.4l-.1.1c-1.3.9-2.8-1.6-2.8-1.6 1.2.3 2.4-.1 3.1-1 .7-1.5 5.3-6 5.3-6 8.7-7.2 11.2-1 11.2-1 .3 1.6.8 3 1.7 4.4 1.6-2.1 3.9-3.6 6.5-4.1 1.2-.2 2.4-.2 3.6-.1l2.9.1c2.7 0 7.6-.3 10.2-3.1-.4.1-.9.2-1.4.2-.4.1-.9.1-1.3.1-1.6.1-3.5-2.1-3.8-2.7-.3-.6 1.2 0 1.2 0 2.3-.1 4.6-.8 6.6-2 .5-.2 1.5-.8.4-.5-1.1.3-5.3-1.1-5.3-1.1 1.2-.2 2.3-.7 3.3-1.5 1.1-.7 2.3-1 3.6-.9 2.2-.2 2.6-1.6 2.6-1.6-.4.3-1 .2-1.5.4-.6.2-1.2.4-1.9.3-1.2.1-2.5 0-3.7-.3.6 0 1.1-.2 1.5-.6 1.1-.6 2-1.5 2.6-2.6l.2-.3c.8-.8 1.9-1.3 3-1.3-.3-.9-1.8-.5-1.8-.5-1.8.6-4 1.1-5.4-.3-.3-.4-.5-.9-.5-1.4l.5.4c1 .7 2.4.5 3.1-.5l.3-.3c.9-.9 2-1.6 3.1-2 .8-.3 1.4-1.2 2.2-1.5-.6-.3-1.4-.3-1.9-.7-.3-.1-.5-.4-.7-.6-.2-.4-.3-.8-.2-1.2.6.5 1.5.6 2.2.3 1.7-.8 2.8-2.1 4.4-3.1.6-.4 1.2-.6 1.8-.9 0 0 0-.2-.1-.2-1-.1-2 0-2.9.2.9-.6 1.3-1.6 2.3-2.2.5-.4 1.2-.6 1.8-.7 1.5-.1 3 0 4.5.2h2c-.1-.1-.2-.2-.1-.4.1-.4.3-.7.6-.9.3-.2.5-.4.8-.7.4-.4.8-.7 1.2-1.1.2-.2.4-.5.6-.7l.2-.2.1-.2c.1-.2.2-.2.4-.1l.1.1c.1.3.1.5.1.8.1.4.1.9.1 1.3v.6l.3.6-.1.2c-.2.4-.4.8-.6 1.1-.1.1-.2.2-.3.2.5-.1.9 0 1.3.3.1-.3.2-.5.3-.8.1-.2.3-.5.4-.7l.3-.3c.2-.2.3-.4.5-.5l.4-.4c.4-.2.7-.4 1-.8 0-.1.1-.2.3-.2.1.1.1.2.2.3v.6c0 .9 0 1.8.1 2.6 0 .3-.1.6-.3.9l-.3.3c-.1.1-.2.2-.4.3h-.1c.3.1.5.4.7.7.3.2.6.4 1 .5.5.2 1 .6 1.4.9.2.2.3.4.3.6.1 1.1.4 2.1.9 3 .2.3.4.6.6.8.4.6.6 1.2 1.1 1.8.3.4.6.8.9 1.3.2.2.2.5.4.8l.2.3c.2.3.3.6.4.9.1.2.2.4.4.5.5.3 1 .6 1.2 1.1.1.5 0 1.1-.2 1.6v.2c.1.3-.1.5-.3.8-.2.2-.3.4-.6.6l-1.5 1.2-.3.3c-.2.2-.5.2-.7.1-.5-.1-.8-.4-1.2-.5-.4-.1-.8 0-1.1-.2s-.5-.6-.7-.9c-.4-.3-.9-.6-1.4-.8-.2-.1-.4-.1-.7-.2-.7-.2-1.4-.5-2.1-.8-2.7.7-4-.5-4-.5V99H89v.2c.1 1.8.4 3.5.9 5.2l1.6 3.9c.5 1.2 1.6 2.6 1.6 3.1l.1 1.1.3.1.6.3c.9.4 1.8.7 2.8.9.8.1 1.4.6 2.1.7.7 0 1.3.1 2 .2 1.1.4 1.9 1.4 1.8 2.6 0 0 0 .8.1.9h.1c.4-.2.8 0 1.1.3.8 1.2 1.5 2.6.9 4l-.2.1c0 .1-.1.2-.2.3l-1.8 1.8c-.8.8-1.5 1.7-2.1 2.8-.6 1.1-1.2 2.1-1.8 3.2-.4.8-.8 1.5-1.4 2.3-.2.4-.5.7-.9.9-.4.2-.9.3-1.3.3-.2 0-.5.1-.7.3-.3.2-.6.4-.9.7-.3.4-.2.9-.3 1.4-.3.8-.8 1.3-1.6 1.6l-3.4 1c-.3-.2-.3-.6-.4-1-.2-1-.4-2-.6-3.1-.1-.7.2-1.4.7-1.9.9-.6 2-.7 2.9-.3.2.1.5.3.7.1.5-.3.9-.8 1-1.4.2-.5.1-1.1.4-1.5.9-1.1 2-1.8 3-2.9l.1-.1c.2-.5.5-.9.7-1.4l.4-1c.2-.5.5-1.1.5-1.1s-2.5.8-4.4 1.3l-2.5.6-.2.1c-5.8 8.7-19 7.3-19 7.3-7.7.3-6.7 2.1-6.7 2.1l-.7 1.7-1 .6-2 .5c1 1.7 1 3.7.3 5.4-1.8 4.3-5.1 10-5.1 10l.3 2.8c2.5 6.9 4.6 8.1 4.6 8.1 2.2 1.7 1.3 2.7 1.3 2.7.9 1.4 2.3 2.4 3.9 2.7l2 3c-1.7.8-3.6 1.2-5.5 1.1-.4.2-1 .2-1 .2m79.7-32.7c0 7.4-3.2 11.2-13.1 11.2-9.8 0-13.3-3.8-13.3-11.2v-13.3c0-6.3 4.7-9.8 13.2-9.8s13.1 3.5 13.1 9.7l.1 13.4zm-9.7-12.7c0-2-.2-4.4-3.4-4.4-3.1 0-3.5 2.4-3.5 4.4v13.4c0 1.9.4 4.7 3.5 4.7s3.4-2.8 3.4-4.7v-13.4zm17.3-9.6h9.7v24.6c0 1.6.6 2.9 3.4 2.9 1.6.2 3.1-1 3.3-2.7v-24.9h9.7v23.6c0 5.5-3.1 9.8-13.1 9.8-8.2 0-13-3.1-13.1-9.8l.1-23.5zm32.8 0h25.2v6.5h-7.8v26.1h-9.7v-26.1h-7.6l-.1-6.5zm32.2 32.6v-32.6H225c3.5 0 7.8.1 10.9 1.5 3.8 1.7 4.4 4.9 4.4 8v14.5c-.1 3.3-1.3 5.7-4.1 7.1-2.5 1.3-5.6 1.5-8.6 1.5h-13.2zm9.7-5.9c6.5.3 6.6-1.8 6.4-6.1v-10.7c-.1-3.8-1.7-4-6.4-4.1v20.9zm50.2-4.6c0 7.4-3.2 11.2-13.1 11.2-9.8 0-13.3-3.8-13.3-11.2v-13.3c0-6.3 4.7-9.8 13.2-9.8s13.1 3.5 13.1 9.7l.1 13.4zm-9.8-12.7c0-2-.2-4.4-3.4-4.4-3.1 0-3.5 2.4-3.5 4.4v13.4c0 1.9.4 4.7 3.5 4.7s3.4-2.8 3.4-4.7v-13.4zm43.6 12.6c0 7.4-3.2 11.2-13.1 11.2s-13.3-3.8-13.3-11.2v-13.3c0-6.3 4.7-9.8 13.2-9.8s13.1 3.5 13.1 9.7l.1 13.4zm-9.7-12.7c0-2-.2-4.4-3.4-4.4-3.1 0-3.5 2.4-3.5 4.4v13.4c0 1.9.4 4.7 3.5 4.7s3.4-2.8 3.4-4.7v-13.4zm27.1 23.1h-9.7v-32.6H330c8 0 11.9 2.5 11.9 9 0 3.5-1 6-5.1 7.4v.1c2.7.5 4.6 2 4.8 4.2.3 2.6.3 8.2.9 10.3.2.5.5.8.9 1.1v.4h-10.6c-.3-.6-.5-1.2-.6-1.9-.2-2.9 0-5.6-.2-7.6-.3-2-1.1-3.3-3.3-3.4h-3.2v13zm0-18.7h3.3c2.8 0 3.5-2 3.5-4.1 0-3.9-2.1-4-6.8-3.9v8z" fill="#fff"/>
</svg>
